<?xml version="1.0" encoding="UTF-8"?>
<!-- Generator: visioncortex VTracer 0.6.4 -->
<svg version="1.1" xmlns="http://www.w3.org/2000/svg" width="616" height="497">
<path d="M0 0 C203.28 0 406.56 0 616 0 C616 164.01000000000002 616 328.02000000000004 616 497 C412.72 497 209.44 497 0 497 C0 332.99 0 168.97999999999996 0 0 Z " fill="#FEFEFE" transform="translate(0,0)"/>
<path d="M0 0 C1.8982704445601826 1.8982704445601826 1.2614668007554428 5.029641742756894 1.3125 7.5625 C1.368574218749984 9.358808593749984 1.368574218749984 9.358808593749984 1.42578125 11.19140625 C0.9797378575215703 15.181243935013356 -0.02693785120334269 17.499317388717145 -1.910888671875 20.957763671875 C-6.230229026636096 29.057131990094376 -10.193502825811095 38.78823857725763 -8.625 48.01953125 C-7.9524577236740015 50.15064958810797 -7.059594153960347 52.0353358395318 -6 54 C-5.009999999999991 54 -4.019999999999982 54 -3 54 C-2.401875000000018 54.94875000000002 -1.8037499999999795 55.89749999999998 -1.1875 56.875 C1.3224257365780545 60.46060819511149 2.8225926453270063 61.050589237574286 7 62 C7 62.65999999999997 7 63.31999999999999 7 64 C8.485000000000014 64.495 8.485000000000014 64.495 10 65 C12.041087969008458 68.00791911222302 12.198780364697484 70.42195343544523 12 74 C12.659999999999968 74 13.319999999999993 74 14 74 C14 73.34000000000003 14 72.68 14 72 C20.75 71.875 20.75 71.875 23 73 C22.670000000000016 71.68 22.340000000000032 70.36000000000001 22 69 C28.723768136900674 71.44500659523663 33.87935081938389 74.06626517991276 38 80 C37.127304687499986 80.213984375 36.25460937499997 80.42796874999999 35.35546875 80.6484375 C31.40029334484484 82.2415582103419 29.173313033859927 84.60109692636667 26.3125 87.625 C21.156034055350233 92.76229692626816 16.088672352182243 95.65499708903513 9.3125 98.25 C-3.6588120281613215 103.22681587882022 -11.330377273867668 110.49556591080147 -19 122 C-21.545094189452527 118.05920899697674 -23.9694841888857 114.08692381337846 -26.23046875 109.9765625 C-26.624357910156277 109.26242187499997 -27.018247070312498 108.54828125 -27.424072265625 107.8125 C-28.218537580997065 106.36537472540482 -29.006898061180607 104.91487950192891 -29.788818359375 103.4609375 C-30.160148925781243 102.78546875 -30.531479492187486 102.11000000000001 -30.9140625 101.4140625 C-31.24357910156249 100.80514160156247 -31.573095703124977 100.196220703125 -31.91259765625 99.56884765625 C-33.077613805223905 97.68258589793606 -33.077613805223905 97.68258589793606 -36 96 C-37.215683854913095 99.32286920342904 -38.03808466151867 102.29039554407996 -38.5 105.8125 C-38.7475 107.3903125 -38.7475 107.3903125 -39 109 C-39.99000000000001 109.495 -39.99000000000001 109.495 -41 110 C-41.22197777140434 104.4505557148915 -40.804995791196745 100.29465432084379 -39 95 C-39.25475805838181 92.47608100800278 -39.25475805838181 92.47608100800278 -40 90 C-40.33944795402948 88.00102871515963 -40.67421615604144 86.0012436128884 -41 84 C-42.31999999999999 84 -43.639999999999986 84 -45 84 C-44.992144775390614 85.15616821289063 -44.992144775390614 85.15616821289063 -44.984130859375 86.335693359375 C-44.963185534288016 89.8696204237333 -44.95028437181219 93.40353436334482 -44.9375 96.9375 C-44.929121093749984 98.14986328125002 -44.920742187500025 99.36222656249998 -44.912109375 100.611328125 C-44.89434533977612 107.16625712261151 -45.11004273935373 113.50401275103081 -46 120 C-45.00999999999999 120 -44.01999999999998 120 -43 120 C-43 120.65999999999997 -43 121.32 -43 122 C-45.3543873338412 123.42944945268931 -46.48032432698011 124.08661261216997 -49.25 123.625 C-49.827499999999986 123.41874999999999 -50.40499999999997 123.21249999999998 -51 123 C-49.514999999999986 122.505 -49.514999999999986 122.505 -48 122 C-48.01047363281248 121.04222656249999 -48.02094726562501 120.08445312499998 -48.03173828125 119.09765625 C-48.068198573319364 115.5119201937577 -48.09099426323212 111.92620021537249 -48.10986328125 108.34033203125 C-48.119861971699606 106.79440547237982 -48.13346538375242 105.24849753669747 -48.15087890625 103.70263671875 C-48.17539950509837 101.46837744721108 -48.18654451262785 99.23437024820504 -48.1953125 97 C-48.20563507080078 96.31945556640625 -48.21595764160156 95.6389111328125 -48.226593017578125 94.937744140625 C-48.22773757366622 89.93649185813354 -47.27922587727687 85.78931177490279 -46 81 C-45.7615021139697 79.24707127194085 -45.56745913938329 77.48695525793113 -45.4375 75.72265625 C-45.362734375 74.79646484375002 -45.287968750000005 73.87027343750003 -45.2109375 72.916015625 C-45.14132812499997 71.97435546874999 -45.07171875 71.03269531249998 -45 70.0625 C-44.48967277324596 63.18725819511934 -43.649661604661446 56.701750268937076 -42 50 C-43.264570312499984 49.90138671875002 -43.264570312499984 49.90138671875002 -44.5546875 49.80078125 C-48.89987458528407 48.79084547620948 -51.603632222385556 46.83420545865857 -55.125 44.1875 C-56.035722656250016 43.529111328125 -56.035722656250016 43.529111328125 -56.96484375 42.857421875 C-60.22748314618707 40.46553046581272 -63.322863910768206 38.0576766305939 -66 35 C-65.9065282102485 32.289318097207115 -64.68105869511152 30.2927823239429 -63.5625 27.8125 C-61.730277815566694 23.681018603728887 -60.85231903782585 19.422031713896388 -60 15 C-58.0625 15.3125 -58.0625 15.3125 -56 16 C-55.670000000000016 16.99000000000001 -55.339999999999975 17.980000000000018 -55 19 C-54.36062500000003 19.288749999999993 -53.72125 19.577499999999986 -53.0625 19.875 C-51 21 -51 21 -50.125 23.5 C-49.20208722913645 26.306297028838856 -49.20208722913645 26.306297028838856 -46.0625 27.25 C-45.051874999999995 27.497500000000002 -44.04124999999999 27.745000000000005 -43 28 C-42.00999999999999 28.329999999999984 -41.01999999999998 28.660000000000025 -40 29 C-38.26675880594041 28.91538507556561 -36.53607187829323 28.763956453307003 -34.8125 28.5625 C-33.91144531250001 28.460664062499973 -33.010390625000014 28.358828125000002 -32.08203125 28.25390625 C-31.394960937500002 28.17011718750001 -30.707890625000005 28.086328125000023 -30 28 C-30.659999999999968 25.689999999999998 -31.319999999999993 23.379999999999995 -32 21 C-31.00999999999999 21 -30.019999999999982 21 -29 21 C-28.504999999999995 23.970000000000027 -28.504999999999995 23.970000000000027 -28 27 C-26.515155880528653 26.604041568140985 -25.03711689699776 26.18249294326921 -23.5625 25.75 C-22.738789062500018 25.517968750000023 -21.91507812499998 25.28593749999999 -21.06640625 25.046875 C-18.829050740706293 24.209487526699434 -18.829050740706293 24.209487526699434 -18.3046875 22.0859375 C-18.20414062499998 21.397578124999995 -18.103593750000016 20.70921874999999 -18 20 C-17.52562499999999 18.96875 -17.051249999999982 17.9375 -16.5625 16.875 C-15.194796330950453 13.85953905347651 -14.659690198091994 11.0841035153515 -14.1875 7.8125 C-13.481584955794744 4.016760090175126 -13.170294745738317 3.1702947457383175 -10.3125 0.3125 C-6.353246839193105 -1.2562606863574501 -4.089000754579445 -1.0422943099908366 0 0 Z " fill="#F6F6F6" transform="translate(440,254)"/>
<path d="M0 0 C1.8982704445601826 1.8982704445601826 1.2614668007554428 5.029641742756894 1.3125 7.5625 C1.2701057171211687 12.819391076974796 0.947927628285754 16.38368126836349 -1.77734375 20.84765625 C-4.469116128019664 25.586207624724693 -6.103859963234356 30.902180884761265 -8 36 C-8.781171874999984 35.95488281249999 -9.562343749999968 35.90976562499998 -10.3671875 35.86328125 C-13.20143945534403 35.711191407079355 -13.20143945534403 35.711191407079355 -15.125 38.1875 C-15.743749999999977 39.11562500000002 -16.36250000000001 40.04374999999999 -17 41 C-17.55687499999999 41.80437499999999 -18.113749999999982 42.608749999999986 -18.6875 43.4375 C-20.158155141755174 46.30877908628389 -20.629169639668476 48.81085890114878 -21 52 C-19.019999999999982 51.34000000000003 -17.04000000000002 50.68000000000001 -15 50 C-15.75 51.9375 -15.75 51.9375 -17 54 C-19.125 54.75 -19.125 54.75 -21 55 C-21 55.65999999999997 -21 56.31999999999999 -21 57 C-21.99000000000001 57 -22.980000000000018 57 -24 57 C-23.616020524515363 44.23268244013684 -23.616020524515363 44.23268244013684 -21 40.375 C-18.23758057128248 35.713417214039225 -18.192823334290438 31.331565193131155 -18 26 C-18.907500000000027 26.495000000000005 -19.814999999999998 26.99000000000001 -20.75 27.5 C-24 29 -24 29 -28 29 C-27.504999999999995 30.144687499999975 -27.504999999999995 30.144687499999975 -27 31.3125 C-26 34 -26 34 -26 37 C-29.024195249236072 36.41196203487078 -32.01758453454045 35.77321882437843 -35 35 C-35 35.99000000000001 -35 36.98000000000002 -35 38 C-38.23861302972932 36.5557536489045 -40.61969163291883 34.74227753037309 -43.25 32.375 C-43.956406249999986 31.74335937500001 -44.66281249999997 31.111718750000023 -45.390625 30.4609375 C-45.921718750000025 29.978828125000007 -46.45281249999999 29.496718750000014 -47 29 C-47 30.649999999999977 -47 32.30000000000001 -47 34 C-47.660000000000025 34 -48.31999999999999 34 -49 34 C-49.17015624999999 33.32453125000001 -49.34031249999998 32.649062500000014 -49.515625 31.953125 C-51.269389989353215 25.076289896805633 -51.269389989353215 25.076289896805633 -56 20 C-56.99000000000001 19.670000000000016 -57.98000000000002 19.339999999999975 -59 19 C-58.938125000000014 19.701250000000016 -58.87625000000003 20.402499999999975 -58.8125 21.125 C-59.04259111881993 24.653063821905278 -60.42934498668399 26.858689973367973 -62 30 C-62.47922282685954 32.473430854254104 -62.47922282685954 32.473430854254104 -62 35 C-60.19082889022201 37.016919713564505 -60.19082889022201 37.016919713564505 -57.75 38.625 C-56.961093749999975 39.194765625 -56.17218750000001 39.764531250000005 -55.359375 40.3515625 C-54.191484375000016 41.1675390625 -54.191484375000016 41.1675390625 -53 42 C-52.306484375000025 42.53496093749999 -51.61296874999999 43.06992187499998 -50.8984375 43.62109375 C-48.158997932032094 45.610851296281226 -45.125068078096376 46.75700856931252 -42 48 C-41.11699218749999 48.35578125000001 -40.23398437499998 48.711562500000014 -39.32421875 49.078125 C-36.885084684415745 50.05791859918804 -34.44360041566341 51.03140989560222 -32 52 C-32.02320312500001 52.66386718749999 -32.04640625000002 53.32773437499998 -32.0703125 54.01171875 C-32.17075045814005 58.92600455899532 -32.01658791296029 62.46267719583943 -30 67 C-29.875 70.3125 -29.875 70.3125 -30 73 C-30.99000000000001 73 -31.980000000000018 73 -33 73 C-33.81542430917989 70.91780951309056 -34.62723188896837 68.83420239324857 -35.4375 66.75 C-36.11619140624998 65.009765625 -36.11619140624998 65.009765625 -36.80859375 63.234375 C-37.701506326951574 60.81033692224298 -38.45794364712913 58.51713524781428 -39 56 C-39.99000000000001 56 -40.98000000000002 56 -42 56 C-41.918701184881684 59.70920229418226 -41.805893986398644 63.41681099204277 -41.6875 67.125 C-41.66494140625002 68.17171874999997 -41.64238281249999 69.2184375 -41.619140625 70.296875 C-41.420741919624106 75.99632871807182 -40.98210324838942 79.9951832882258 -38 85 C-38 85.99000000000001 -38 86.98000000000002 -38 88 C-36.68000000000001 88 -35.360000000000014 88 -34 88 C-33.81244140625 87.13761718749998 -33.81244140625 87.13761718749998 -33.62109375 86.2578125 C-32.986911421870616 83.95242013736612 -32.137002503869326 82.00778610201985 -31.0625 79.875 C-30.55396484375001 78.85019531249998 -30.55396484375001 78.85019531249998 -30.03515625 77.8046875 C-28.5831229173059 75.27321806715224 -27.26276336575836 74.12446685746448 -24.625 72.875 C-19.487960594208516 71.63502497101587 -14.237956458811198 71.13916593016751 -9 72 C-6.120932511332626 74.05235695769778 -5.146033904448814 75.20543757500701 -4.50390625 78.69921875 C-4.633757029115316 85.32160848488132 -5.404066520704475 90.88101394166051 -8 97 C-8.990000000000009 96.67000000000002 -9.980000000000018 96.34000000000003 -11 96 C-10.504999999999995 94.01999999999998 -10.504999999999995 94.01999999999998 -10 92 C-13.465000000000032 92.99000000000001 -13.465000000000032 92.99000000000001 -17 94 C-17 94.65999999999997 -17 95.32 -17 96 C-22.189071514095986 96.52770218787418 -22.189071514095986 96.52770218787418 -25 96 C-27.109743175805818 94.21689218897632 -28.373656298854996 92.27688118160302 -30 90 C-30.99000000000001 89.67000000000002 -31.980000000000018 89.34000000000003 -33 89 C-30.827293094353138 95.78970908014651 -27.4301692122487 101.71196810486947 -23.83984375 107.828125 C-22.467900321073103 110.19334382014569 -21.177396555462792 112.53539788390174 -20 115 C-19.00999999999999 115 -18.019999999999982 115 -17 115 C-15.38386356600347 113.23029341061107 -15.38386356600347 113.23029341061107 -13.9375 111 C-12.40234375 108.75 -12.40234375 108.75 -11 107 C-10.340000000000032 107 -9.680000000000007 107 -9 107 C-8.504999999999995 105.51499999999999 -8.504999999999995 105.51499999999999 -8 104 C-1.7000009084923136 98.86939873317016 4.931329716181381 95.38374511525336 12.60546875 92.84765625 C18.44139061238343 90.78175895124434 22.752627053711194 86.57271931379239 27.265625 82.48828125 C29 81 29 81 31 80 C31.652132917043332 77.97536744910349 31.652132917043332 77.97536744910349 32 76 C26.499134093749092 74.94664269880303 21.52081885375003 74.9337474316792 16 76 C15.670000000000016 76.32999999999998 15.340000000000032 76.65999999999997 15 77 C13.333828848928249 77.04063832075786 11.666119051515807 77.0427210013209 10 77 C9.913632812499998 76.301328125 9.827265624999995 75.60265625 9.73828125 74.8828125 C9.318805875405815 72.16584355996798 8.84747716971708 69.61669497247692 8 67 C5.714751054693238 65.56911788791143 5.714751054693238 65.56911788791143 3 65 C0.31249999999994316 62.49999999999994 0.31249999999994316 62.49999999999994 -2 60 C-2.659999999999968 59.34000000000003 -3.319999999999993 58.68000000000001 -4 58 C-3.670000000000016 57.00999999999999 -3.340000000000032 56.01999999999998 -3 55 C-2.4637500000000045 55.78375 -1.927500000000009 56.567499999999995 -1.375 57.375 C1.3024284168863005 60.334262987084855 3.1843302478396254 61.046082561959906 7 62 C7 62.65999999999997 7 63.31999999999999 7 64 C8.485000000000014 64.495 8.485000000000014 64.495 10 65 C12.041087969008458 68.00791911222302 12.198780364697484 70.42195343544523 12 74 C12.659999999999968 74 13.319999999999993 74 14 74 C14 73.34000000000003 14 72.68 14 72 C20.75 71.875 20.75 71.875 23 73 C22.670000000000016 71.68 22.340000000000032 70.36000000000001 22 69 C28.723768136900674 71.44500659523663 33.87935081938389 74.06626517991276 38 80 C37.127304687499986 80.213984375 36.25460937499997 80.42796874999999 35.35546875 80.6484375 C31.40029334484484 82.2415582103419 29.173313033859927 84.60109692636667 26.3125 87.625 C21.156034055350233 92.76229692626816 16.088672352182243 95.65499708903513 9.3125 98.25 C-3.6588120281613215 103.22681587882022 -11.330377273867668 110.49556591080147 -19 122 C-21.545094189452527 118.05920899697674 -23.9694841888857 114.08692381337846 -26.23046875 109.9765625 C-26.624357910156277 109.26242187499997 -27.018247070312498 108.54828125 -27.424072265625 107.8125 C-28.218537580997065 106.36537472540482 -29.006898061180607 104.91487950192891 -29.788818359375 103.4609375 C-30.160148925781243 102.78546875 -30.531479492187486 102.11000000000001 -30.9140625 101.4140625 C-31.24357910156249 100.80514160156247 -31.573095703124977 100.196220703125 -31.91259765625 99.56884765625 C-33.077613805223905 97.68258589793606 -33.077613805223905 97.68258589793606 -36 96 C-37.215683854913095 99.32286920342904 -38.03808466151867 102.29039554407996 -38.5 105.8125 C-38.7475 107.3903125 -38.7475 107.3903125 -39 109 C-39.99000000000001 109.495 -39.99000000000001 109.495 -41 110 C-41.22197777140434 104.4505557148915 -40.804995791196745 100.29465432084379 -39 95 C-39.25475805838181 92.47608100800278 -39.25475805838181 92.47608100800278 -40 90 C-40.33944795402948 88.00102871515963 -40.67421615604144 86.0012436128884 -41 84 C-42.31999999999999 84 -43.639999999999986 84 -45 84 C-44.992144775390614 85.15616821289063 -44.992144775390614 85.15616821289063 -44.984130859375 86.335693359375 C-44.963185534288016 89.8696204237333 -44.95028437181219 93.40353436334482 -44.9375 96.9375 C-44.929121093749984 98.14986328125002 -44.920742187500025 99.36222656249998 -44.912109375 100.611328125 C-44.89434533977612 107.16625712261151 -45.11004273935373 113.50401275103081 -46 120 C-45.00999999999999 120 -44.01999999999998 120 -43 120 C-43 120.65999999999997 -43 121.32 -43 122 C-45.3543873338412 123.42944945268931 -46.48032432698011 124.08661261216997 -49.25 123.625 C-49.827499999999986 123.41874999999999 -50.40499999999997 123.21249999999998 -51 123 C-49.514999999999986 122.505 -49.514999999999986 122.505 -48 122 C-48.01047363281248 121.04222656249999 -48.02094726562501 120.08445312499998 -48.03173828125 119.09765625 C-48.068198573319364 115.5119201937577 -48.09099426323212 111.92620021537249 -48.10986328125 108.34033203125 C-48.119861971699606 106.79440547237982 -48.13346538375242 105.24849753669747 -48.15087890625 103.70263671875 C-48.17539950509837 101.46837744721108 -48.18654451262785 99.23437024820504 -48.1953125 97 C-48.20563507080078 96.31945556640625 -48.21595764160156 95.6389111328125 -48.226593017578125 94.937744140625 C-48.22773757366622 89.93649185813354 -47.27922587727687 85.78931177490279 -46 81 C-45.7615021139697 79.24707127194085 -45.56745913938329 77.48695525793113 -45.4375 75.72265625 C-45.362734375 74.79646484375002 -45.287968750000005 73.87027343750003 -45.2109375 72.916015625 C-45.14132812499997 71.97435546874999 -45.07171875 71.03269531249998 -45 70.0625 C-44.48967277324596 63.18725819511934 -43.649661604661446 56.701750268937076 -42 50 C-43.264570312499984 49.90138671875002 -43.264570312499984 49.90138671875002 -44.5546875 49.80078125 C-48.89987458528407 48.79084547620948 -51.603632222385556 46.83420545865857 -55.125 44.1875 C-56.035722656250016 43.529111328125 -56.035722656250016 43.529111328125 -56.96484375 42.857421875 C-60.22748314618707 40.46553046581272 -63.322863910768206 38.0576766305939 -66 35 C-65.9065282102485 32.289318097207115 -64.68105869511152 30.2927823239429 -63.5625 27.8125 C-61.730277815566694 23.681018603728887 -60.85231903782585 19.422031713896388 -60 15 C-58.0625 15.3125 -58.0625 15.3125 -56 16 C-55.670000000000016 16.99000000000001 -55.339999999999975 17.980000000000018 -55 19 C-54.36062500000003 19.288749999999993 -53.72125 19.577499999999986 -53.0625 19.875 C-51 21 -51 21 -50.125 23.5 C-49.20208722913645 26.306297028838856 -49.20208722913645 26.306297028838856 -46.0625 27.25 C-45.051874999999995 27.497500000000002 -44.04124999999999 27.745000000000005 -43 28 C-42.00999999999999 28.329999999999984 -41.01999999999998 28.660000000000025 -40 29 C-38.26675880594041 28.91538507556561 -36.53607187829323 28.763956453307003 -34.8125 28.5625 C-33.91144531250001 28.460664062499973 -33.010390625000014 28.358828125000002 -32.08203125 28.25390625 C-31.394960937500002 28.17011718750001 -30.707890625000005 28.086328125000023 -30 28 C-30.659999999999968 25.689999999999998 -31.319999999999993 23.379999999999995 -32 21 C-31.00999999999999 21 -30.019999999999982 21 -29 21 C-28.504999999999995 23.970000000000027 -28.504999999999995 23.970000000000027 -28 27 C-26.515155880528653 26.604041568140985 -25.03711689699776 26.18249294326921 -23.5625 25.75 C-22.738789062500018 25.517968750000023 -21.91507812499998 25.28593749999999 -21.06640625 25.046875 C-18.829050740706293 24.209487526699434 -18.829050740706293 24.209487526699434 -18.3046875 22.0859375 C-18.20414062499998 21.397578124999995 -18.103593750000016 20.70921874999999 -18 20 C-17.52562499999999 18.96875 -17.051249999999982 17.9375 -16.5625 16.875 C-15.194796330950453 13.85953905347651 -14.659690198091994 11.0841035153515 -14.1875 7.8125 C-13.481584955794744 4.016760090175126 -13.170294745738317 3.1702947457383175 -10.3125 0.3125 C-6.353246839193105 -1.2562606863574501 -4.089000754579445 -1.0422943099908366 0 0 Z " fill="#525252" transform="translate(440,254)"/>
<path d="M0 0 C1.8982704445601826 1.8982704445601826 1.2614668007554428 5.029641742756894 1.3125 7.5625 C1.2701057171211687 12.819391076974796 0.947927628285754 16.38368126836349 -1.77734375 20.84765625 C-4.469116128019664 25.586207624724693 -6.103859963234356 30.902180884761265 -8 36 C-8.781171874999984 35.95488281249999 -9.562343750000025 35.90976562499998 -10.3671875 35.86328125 C-13.20143945534403 35.711191407079355 -13.20143945534403 35.711191407079355 -15.125 38.1875 C-15.743749999999977 39.11562500000002 -16.36250000000001 40.04374999999999 -17 41 C-17.55687499999999 41.80437499999999 -18.113749999999982 42.608749999999986 -18.6875 43.4375 C-20.158155141755174 46.30877908628389 -20.629169639668476 48.81085890114878 -21 52 C-19.019999999999982 51.34000000000003 -17.04000000000002 50.68000000000001 -15 50 C-15.75 51.9375 -15.75 51.9375 -17 54 C-19.125 54.75 -19.125 54.75 -21 55 C-21 55.65999999999997 -21 56.31999999999999 -21 57 C-21.99000000000001 57 -22.980000000000018 57 -24 57 C-23.61602052451542 44.23268244013684 -23.61602052451542 44.23268244013684 -21 40.375 C-18.23758057128248 35.713417214039225 -18.192823334290438 31.331565193131155 -18 26 C-19.319999999999993 26.329999999999984 -20.639999999999986 26.660000000000025 -22 27 C-22.329999999999984 26.339999999999975 -22.660000000000025 25.680000000000007 -23 25 C-21.680000000000007 24.670000000000016 -20.360000000000014 24.339999999999975 -19 24 C-18.896875000000023 23.484375 -18.79374999999999 22.96875 -18.6875 22.4375 C-18 20 -18 20 -16.5625 16.875 C-15.194796330950453 13.85953905347651 -14.659690198091994 11.0841035153515 -14.1875 7.8125 C-13.481584955794744 4.016760090175126 -13.170294745738317 3.1702947457383175 -10.3125 0.3125 C-6.353246839193105 -1.2562606863574501 -4.089000754579445 -1.0422943099908366 0 0 Z " fill="#686868" transform="translate(440,254)"/>
<path d="M0 0 C1.9375 0.3125 1.9375 0.3125 4 1 C4.329999999999984 1.990000000000009 4.660000000000025 2.980000000000018 5 4 C5.639374999999973 4.288749999999993 6.278750000000002 4.577499999999986 6.9375 4.875 C9 6 9 6 9.875 8.5 C10.797912770863547 11.306297028838856 10.797912770863547 11.306297028838856 13.9375 12.25 C14.948125000000005 12.497500000000002 15.958750000000009 12.745000000000005 17 13 C17.99000000000001 13.329999999999984 18.980000000000018 13.660000000000025 20 14 C21.733241194059588 13.91538507556561 23.463928121706772 13.763956453307003 25.1875 13.5625 C26.088554687499993 13.460664062499973 26.989609374999986 13.358828125000002 27.91796875 13.25390625 C28.948574218749968 13.128222656249989 28.948574218749968 13.128222656249989 30 13 C29.340000000000032 10.689999999999998 28.680000000000007 8.379999999999995 28 6 C28.99000000000001 6 29.980000000000018 6 31 6 C31.495000000000005 8.970000000000027 31.495000000000005 8.970000000000027 32 12 C33.98000000000002 11.670000000000016 35.95999999999998 11.339999999999975 38 11 C37.34000000000003 11.990000000000009 36.68000000000001 12.980000000000018 36 14 C34.68000000000001 14 33.360000000000014 14 32 14 C32.495000000000005 15.144687499999975 32.495000000000005 15.144687499999975 33 16.3125 C34 19 34 19 34 22 C30.975804750763928 21.411962034870783 27.982415465459553 20.773218824378432 25 20 C25 20.99000000000001 25 21.980000000000018 25 23 C21.761386970270678 21.5557536489045 19.38030836708117 19.742277530373087 16.75 17.375 C16.043593750000014 16.74335937500001 15.337187500000027 16.111718750000023 14.609375 15.4609375 C14.078281249999975 14.978828125000007 13.547187500000007 14.496718750000014 13 14 C13 15.649999999999977 13 17.30000000000001 13 19 C12.339999999999975 19 11.680000000000007 19 11 19 C10.829843750000009 18.324531250000007 10.659687500000018 17.649062500000014 10.484375 16.953125 C8.730610010646785 10.076289896805633 8.730610010646785 10.076289896805633 4 5 C3.009999999999991 4.670000000000016 2.019999999999982 4.339999999999975 1 4 C1.0618749999999864 4.701250000000016 1.1237499999999727 5.402499999999975 1.1875 6.125 C0.9574088811800721 9.653063821905278 -0.42934498668398646 11.858689973367973 -2 15 C-2.479222826859541 17.473430854254104 -2.479222826859541 17.473430854254104 -2 20 C-0.19082889022200789 22.016919713564505 -0.19082889022200789 22.016919713564505 2.25 23.625 C3.038906250000025 24.194765625000002 3.827812499999993 24.764531250000005 4.640625 25.3515625 C5.808515624999984 26.167539062499998 5.808515624999984 26.167539062499998 7 27 C7.693515624999975 27.53496093749999 8.387031250000007 28.069921874999977 9.1015625 28.62109375 C11.841002067967906 30.610851296281226 14.874931921903624 31.757008569312518 18 33 C18.88300781250001 33.35578125000001 19.766015625000023 33.711562500000014 20.67578125 34.078125 C23.114915315584255 35.05791859918804 25.55639958433659 36.03140989560222 28 37 C27.97679687499999 37.66386718749999 27.953593749999982 38.32773437499998 27.9296875 39.01171875 C27.82924954185995 43.92600455899532 27.98341208703971 47.46267719583943 30 52 C30.125 55.31250000000006 30.125 55.31250000000006 30 58 C29.00999999999999 58 28.019999999999982 58 27 58 C26.18457569082011 55.9178095130905 25.372768111031633 53.834202393248574 24.5625 51.75 C23.883808593750018 50.009765625 23.883808593750018 50.009765625 23.19140625 48.234375 C22.298493673048426 45.81033692224298 21.542056352870873 43.51713524781428 21 41 C20.00999999999999 41 19.019999999999982 41 18 41 C18.011601562500005 41.59425781250002 18.02320312500001 42.18851562499998 18.03515625 42.80078125 C18.10546296404067 49.25895512544872 17.683509157197932 55.57989613060528 17 62 C13.185712425456586 56.05851358580742 15.34571392907975 47.67482477426637 16.51953125 41.08203125 C16.96976456157836 39.04464453789359 17.477565897977172 37.02007852782168 18 35 C16.735429687500016 34.90138671875002 16.735429687500016 34.90138671875002 15.4453125 34.80078125 C11.100125414715876 33.79084547620948 8.396367777614444 31.834205458658573 4.875 29.1875 C3.964277343749984 28.529111328124998 3.964277343749984 28.529111328124998 3.03515625 27.857421875 C-0.227483146187069 25.46553046581272 -3.3228639107682056 23.057676630593903 -6 20 C-5.906528210248496 17.289318097207115 -4.681058695111517 15.292782323942902 -3.5625 12.8125 C-1.7302778155666942 8.681018603728887 -0.8523190378258505 4.422031713896388 0 0 Z " fill="#232323" transform="translate(380,269)"/>
<path d="M0 0 C0.4589062499999841 0.42152343750001364 0.917812500000025 0.8430468750000273 1.390625 1.27734375 C2.311015624999982 2.09912109375 2.311015624999982 2.09912109375 3.25 2.9375 C3.853281250000009 3.4827734374999864 4.456562500000018 4.028046874999973 5.078125 4.58984375 C7.084673051841719 6.062127991290367 8.570024487710839 6.575291890551227 11 7 C11 7.660000000000025 11 8.319999999999993 11 9 C11.990000000000009 9.329999999999984 12.980000000000018 9.660000000000025 14 10 C16.04108796900846 13.007919112223021 16.198780364697484 15.421953435445232 16 19 C16.659999999999968 19 17.319999999999993 19 18 19 C18 18.339999999999975 18 17.680000000000007 18 17 C24.75 16.875 24.75 16.875 27 18 C26.504999999999995 16.019999999999982 26.504999999999995 16.019999999999982 26 14 C32.72376813690073 16.445006595236634 37.87935081938389 19.06626517991276 42 25 C41.127304687499986 25.213984374999995 40.25460937499997 25.42796874999999 39.35546875 25.6484375 C35.40029334484473 27.241558210341907 33.17331303385993 29.601096926366665 30.3125 32.625 C25.156034055350233 37.762296926268164 20.088672352182243 40.654997089035135 13.3125 43.25 C0.34118797183867855 48.22681587882022 -7.3303772738676685 55.495565910801474 -15 67 C-18.443494774069507 61.66813712402143 -21.628534308211783 56.21195448612252 -24.75 50.6875 C-25.15081787109375 49.98173828124999 -25.5516357421875 49.27597656249998 -25.964599609375 48.548828125 C-27.550266643060127 45.72715917019758 -28.973931454360297 43.07820563691905 -30 40 C-29.00999999999999 40 -28.019999999999982 40 -27 40 C-25.54048880630222 42.58267412876569 -24.08235118666829 45.16610740523225 -22.625 47.75 C-22.212499999999977 48.479609374999995 -21.80000000000001 49.20921874999999 -21.375 49.9609375 C-20.97539062499999 50.669921875 -20.575781249999977 51.37890625 -20.1640625 52.109375 C-19.7974853515625 52.75874023437501 -19.430908203125 53.40810546875002 -19.05322265625 54.0771484375 C-17.98445956995738 56.02837191168658 -16.982414966101544 58.00410556293997 -16 60 C-15.009999999999991 60 -14.019999999999982 60 -13 60 C-11.38386356600347 58.23029341061107 -11.38386356600347 58.23029341061107 -9.9375 56 C-8.40234375 53.75 -8.40234375 53.75 -7 52 C-6.339999999999975 52 -5.680000000000007 52 -5 52 C-4.670000000000016 51.00999999999999 -4.339999999999975 50.01999999999998 -4 49 C2.2999990915077433 43.86939873317016 8.93132971618138 40.38374511525336 16.60546875 37.84765625 C22.44139061238343 35.78175895124434 26.752627053711194 31.57271931379239 31.265625 27.48828125 C33 26 33 26 35 25 C35.65213291704333 22.975367449103544 35.65213291704333 22.975367449103544 36 21 C30.499134093749092 19.946642698803032 25.52081885375003 19.933747431679194 20 21 C19.504999999999995 21.495000000000005 19.504999999999995 21.495000000000005 19 22 C17.33382884892825 22.040638320757864 15.666119051515807 22.0427210013209 14 22 C13.913632812499998 21.301328124999998 13.827265624999995 20.602656249999995 13.73828125 19.8828125 C13.318805875405815 17.165843559967982 12.84747716971708 14.616694972476921 12 12 C9.714751054693238 10.569117887911432 9.714751054693238 10.569117887911432 7 10 C4.3125 7.5 4.3125 7.5 2 5 C1.339999999999975 4.339999999999975 0.6800000000000068 3.680000000000007 0 3 C0 2.009999999999991 0 1.0199999999999818 0 0 Z " fill="#393939" transform="translate(436,309)"/>
<path d="M0 0 C2.0813346687106673 3.1220020030660294 2.2737822007563295 3.932669886553356 2.25 7.5 C2.2551562500000273 8.2734375 2.2603124999999977 9.046875 2.265625 9.84375 C2 12 2 12 0 15 C-3.625 15.6875 -3.625 15.6875 -7 16 C-7 16.660000000000025 -7 17.319999999999993 -7 18 C-9.75 18.75 -9.75 18.75 -13 19 C-16.648682023261472 16.16213620412998 -18.836486467500606 13.261390107852549 -19.4375 8.625 C-19 5 -19 5 -16.875 2.125 C-11.489077408321407 -1.8558993068928658 -6.283963850966018 -1.256792770193215 0 0 Z " fill="#F8F8F8" transform="translate(430,329)"/>
<path d="M0 0 C1.8982704445601826 1.8982704445601826 1.2614668007554428 5.029641742756894 1.3125 7.5625 C1.2701057171211687 12.819391076974796 0.947927628285754 16.38368126836349 -1.77734375 20.84765625 C-4.469116128019664 25.586207624724693 -6.103859963234356 30.902180884761265 -8 36 C-8.781171874999984 35.95488281249999 -9.562343750000025 35.90976562499998 -10.3671875 35.86328125 C-13.20143945534403 35.711191407079355 -13.20143945534403 35.711191407079355 -15.125 38.1875 C-15.743749999999977 39.11562500000002 -16.36250000000001 40.04374999999999 -17 41 C-17.55687499999999 41.80437499999999 -18.113749999999982 42.608749999999986 -18.6875 43.4375 C-20.158155141755174 46.30877908628389 -20.629169639668476 48.81085890114878 -21 52 C-19.019999999999982 51.34000000000003 -17.04000000000002 50.68000000000001 -15 50 C-15.75 51.9375 -15.75 51.9375 -17 54 C-19.125 54.75 -19.125 54.75 -21 55 C-21 55.65999999999997 -21 56.31999999999999 -21 57 C-21.99000000000001 57 -22.980000000000018 57 -24 57 C-23.860855040503736 48.81574647326488 -23.49566013306412 41.4753878448081 -18 35 C-16.344167751047166 34.306860919043004 -14.678890212750048 33.635255756175695 -13 33 C-11.620324761990673 29.464857069582422 -11.620324761990673 29.464857069582422 -11 26 C-10.396718749999991 25.92265624999999 -9.793437499999982 25.845312499999977 -9.171875 25.765625 C-6.228868175376647 24.728162162542844 -5.6817927084528606 23.489850244570277 -4.25 20.75 C-1.3207606677206059 14.569036271336984 -1.5268833873529388 8.707742197084997 -2 2 C-4.310000000000002 2.329999999999984 -6.6200000000000045 2.660000000000025 -9 3 C-11.399223301374718 7.648495146413552 -11.199574088779912 11.910860736112795 -11 17 C-12.649999999999977 17.329999999999984 -14.300000000000011 17.660000000000025 -16 18 C-13.230062178967273 3.089483644228153 -13.230062178967273 3.089483644228153 -9.8125 0.0625 C-6.1707400267196135 -1.313275989905918 -3.750447133582952 -0.8654878000576218 0 0 Z " fill="#383838" transform="translate(440,254)"/>
<path d="M0 0 C2.8790674886673173 2.052356957697725 3.8539660955511863 3.2054375750070108 4.49609375 6.69921875 C4.366242970884684 13.321608484881324 3.5959334792955246 18.881013941660513 1 25 C0.009999999999990905 24.670000000000016 -0.9800000000000182 24.339999999999975 -2 24 C-1.670000000000016 22.680000000000007 -1.339999999999975 21.360000000000014 -1 20 C-3.3100000000000023 20.660000000000025 -5.6200000000000045 21.319999999999993 -8 22 C-8 22.660000000000025 -8 23.319999999999993 -8 24 C-13.155908639523318 24.524329692154936 -13.155908639523318 24.524329692154936 -16 24 C-18.75 21.1875 -18.75 21.1875 -21 18 C-23.162206172420156 16.187349497478635 -23.162206172420156 16.187349497478635 -25 15 C-20.47826086956519 3.173913043478251 -20.47826086956519 3.173913043478251 -15.625 0.875 C-10.487960594208516 -0.3649750289841336 -5.2379564588111975 -0.8608340698324923 0 0 Z M-18.4375 5.6875 C-20.681180436414593 9.008147045893566 -20.542719998623227 11.06528000998145 -20 15 C-18.53790701555232 18.443638941453344 -18.53790701555232 18.443638941453344 -16 21 C-11.913179725819134 22.240542760858546 -11.913179725819134 22.240542760858546 -8 21 C-8 20.339999999999975 -8 19.680000000000007 -8 19 C-6.886250000000018 18.896875000000023 -5.7724999999999795 18.79374999999999 -4.625 18.6875 C-3.4287499999999795 18.460624999999993 -2.232500000000016 18.233749999999986 -1 18 C1.0813346687106673 14.87799799693397 1.2737822007563295 14.067330113446644 1.25 10.5 C1.2551562500000273 9.7265625 1.2603124999999977 8.953125 1.265625 8.15625 C1.127380621086843 5.704861563155873 1.127380621086843 5.704861563155873 -1 3 C-7.5168519379072904 1.5640834713085496 -12.746549295711475 1.7476110508771967 -18.4375 5.6875 Z " fill="#656565" transform="translate(431,326)"/>
<path d="M0 0 C2.625 0.375 2.625 0.375 5 1 C4.916210937500011 1.5916796875000045 4.832421875000023 2.183359375000009 4.74609375 2.79296875 C4.644257812499973 3.583164062499975 4.542421875000002 4.373359375000007 4.4375 5.1875 C4.333085937500016 5.9648046875000205 4.228671874999975 6.742109374999984 4.12109375 7.54296875 C3.899242466617409 9.987024215200051 3.899242466617409 9.987024215200051 4.46484375 12.2890625 C5.182051163982862 15.922215385431457 5.145017233787883 19.500992777403326 5.125 23.1875 C5.1288671875000205 23.911308593749993 5.132734374999984 24.635117187499986 5.13671875 25.380859375 C5.126736111111086 30.74652777777777 5.126736111111086 30.74652777777777 4 33 C3.009999999999991 33 2.019999999999982 33 1 33 C1 27.060000000000002 1 21.120000000000005 1 15 C-1.9700000000000273 15.660000000000025 -4.939999999999998 16.319999999999993 -8 17 C-8.867513601539201 11.361161589995163 -6.619527665980854 8.372662482117732 -3.5078125 3.953125 C-2 2 -2 2 0 0 Z " fill="#EFEFEF" transform="translate(427,289)"/>
<path d="M0 0 C2.4750000000000227 0.9899999999999984 2.4750000000000227 0.9899999999999984 5 2 C5 2.66 5 3.3200000000000003 5 4 C5.7618359374999955 3.988398437499999 6.523671874999991 3.976796874999998 7.30859375 3.96484375 C13.628960453429102 3.909609584052429 19.75238907667523 3.9923208188185875 26 5 C26.660000000000025 5.66 27.319999999999993 6.32 28 7 C30.42715206077321 7.679404673241706 30.42715206077321 7.679404673241706 33.125 8.125 C34.490117187500005 8.376367187500001 34.490117187500005 8.376367187500001 35.8828125 8.6328125 C36.581484375 8.753984375000002 37.280156250000005 8.875156250000003 38 9 C38 9.659999999999997 38 10.32 38 11 C37.2265625 10.916210937499997 36.453125 10.832421875000001 35.65625 10.74609375 C28.666285850326403 10.024834752265335 28.666285850326403 10.024834752265335 21.6875 10.5 C17.71788083234935 11.038253446461106 14.899233063544443 10.731106199414583 11 10 C11 9.340000000000003 11 8.68 11 8 C10.373515624999982 7.962617187500001 9.74703125000002 7.925234374999999 9.1015625 7.88671875 C8.284296874999995 7.8209765625 7.467031249999991 7.755234375000001 6.625 7.6875 C5.812890625000023 7.629492187499999 5.000781249999989 7.571484375000001 4.1640625 7.51171875 C2 7 2 7 0 4 C0 2.6799999999999997 0 1.3599999999999994 0 0 Z " fill="#9B9B9B" transform="translate(360,24)"/>
<path d="M0 0 C1.5 1.25 1.5 1.25 3 3 C3 4.319999999999993 3 5.639999999999986 3 7 C4.980000000000018 6.670000000000016 6.9599999999999795 6.339999999999975 9 6 C8.009999999999991 7.485000000000014 8.009999999999991 7.485000000000014 7 9 C5.680000000000007 9 4.360000000000014 9 3 9 C3.329999999999984 9.763125000000002 3.660000000000025 10.526250000000005 4 11.3125 C5 14 5 14 5 17 C1.9758047507639276 16.411962034870783 -1.01758453454039 15.773218824378432 -4 15 C-4 15.990000000000009 -4 16.980000000000018 -4 18 C-7.367203874170514 16.60667425896395 -8.98595240272033 15.021071395919535 -11 12 C-9 9 -9 9 -6.6171875 8.48828125 C-5.712265624999986 8.430273437499977 -4.807343749999973 8.372265625000011 -3.875 8.3125 C-2.964921875000016 8.246757812499993 -2.054843749999975 8.181015624999986 -1.1171875 8.11328125 C-0.06917968750002501 8.057207031250016 -0.06917968750002501 8.057207031250016 1 8 C0.339999999999975 5.689999999999998 -0.3199999999999932 3.3799999999999955 -1 1 C-0.6700000000000159 0.6700000000000159 -0.339999999999975 0.339999999999975 0 0 Z " fill="#424242" transform="translate(409,274)"/>
<path d="M0 0 C0.6883593750000045 0.6322851562500205 0.6883593750000045 0.6322851562500205 1.390625 1.27734375 C2.004218750000007 1.8251953125 2.6178125000000136 2.373046875 3.25 2.9375 C3.853281250000009 3.4827734374999864 4.456562500000018 4.028046874999973 5.078125 4.58984375 C7.084673051841719 6.062127991290367 8.570024487710839 6.575291890551227 11 7 C11 7.660000000000025 11 8.319999999999993 11 9 C11.990000000000009 9.329999999999984 12.980000000000018 9.660000000000025 14 10 C16.04108796900846 13.007919112223021 16.198780364697484 15.421953435445232 16 19 C16.660000000000025 19 17.319999999999993 19 18 19 C18 18.339999999999975 18 17.680000000000007 18 17 C24.75 16.875 24.75 16.875 27 18 C26.670000000000016 16.680000000000007 26.339999999999975 15.360000000000014 26 14 C27.319999999999993 14.660000000000025 28.639999999999986 15.319999999999993 30 16 C29.339999999999975 16 28.680000000000007 16 28 16 C28 16.99000000000001 28 17.980000000000018 28 19 C26.886250000000018 18.90718750000002 26.886250000000018 18.90718750000002 25.75 18.8125 C22.95181641256937 18.752704823333886 22.95181641256937 18.752704823333886 21 20.5 C18.48916885922091 22.383123355584303 17.063737892776658 22.120937022083297 14 22 C13.913632812499998 21.301328124999998 13.827265624999995 20.602656249999995 13.73828125 19.8828125 C13.318805875405815 17.165843559967982 12.84747716971708 14.616694972476921 12 12 C9.714751054693238 10.569117887911432 9.714751054693238 10.569117887911432 7 10 C4.3125 7.5 4.3125 7.5 2 5 C1.339999999999975 4.339999999999975 0.6800000000000068 3.680000000000007 0 3 C0 2.009999999999991 0 1.0199999999999818 0 0 Z " fill="#656565" transform="translate(436,309)"/>
<path d="M0 0 C2.2151033802692837 3.3226550704039255 2.247509372922707 4.359343486134378 2.23046875 8.2265625 C2.228535156250018 9.259101562500007 2.2266015624999795 10.291640625000014 2.224609375 11.35546875 C2.2123632812500205 12.434414062500025 2.200117187499984 13.513359374999993 2.1875 14.625 C2.186855468750025 15.680742187500016 2.186210937499993 16.736484374999975 2.185546875 17.82421875 C2.1513367318906376 23.959237747607744 1.7970388704439983 29.916999340771554 1 36 C1.990000000000009 36 2.980000000000018 36 4 36 C4 36.65999999999997 4 37.31999999999999 4 38 C1.6456126661587973 39.42944945268931 0.5196756730198899 40.08661261216997 -2.25 39.625 C-2.8274999999999864 39.41874999999999 -3.4049999999999727 39.21249999999998 -4 39 C-2.5149999999999864 38.504999999999995 -2.5149999999999864 38.504999999999995 -1 38 C-1.0052368164062386 37.02651611328122 -1.0104736328124773 36.05303222656249 -1.015869140625 35.050048828125 C-1.0340211732705598 31.42522100483177 -1.0454692305165167 27.800397173733984 -1.054931640625 24.175537109375 C-1.0599485645940376 22.60912397723058 -1.0667636198700734 21.042715499310418 -1.075439453125 19.476318359375 C-1.0876209370237007 17.219877606607042 -1.0932548073091084 14.963498981706152 -1.09765625 12.70703125 C-1.1028175354003906 12.011002960205076 -1.1079788208007813 11.314974670410152 -1.1132965087890625 10.597854614257813 C-1.1137154600979784 6.935298481614552 -0.8714809488282071 3.5613114206440173 0 0 Z " fill="#555555" transform="translate(393,338)"/>
<path d="M0 0 C1.9375 0.3125 1.9375 0.3125 4 1 C4.329999999999984 1.990000000000009 4.660000000000025 2.980000000000018 5 4 C5.639374999999973 4.288749999999993 6.278750000000002 4.577499999999986 6.9375 4.875 C9 6 9 6 9.875 8.5 C10.246249999999975 9.324999999999989 10.617500000000007 10.149999999999977 11 11 C12.982487153896159 11.717069821622033 14.984153494696557 12.382904131029534 17 13 C18.875 15.125 18.875 15.125 20 17 C17.03824876891059 16.387223883222873 15.619412172938894 15.746274781959244 13 14 C13 15.649999999999977 13 17.30000000000001 13 19 C12.339999999999975 19 11.680000000000007 19 11 19 C10.744765625000014 17.986796874999982 10.744765625000014 17.986796874999982 10.484375 16.953125 C8.730610010646785 10.076289896805633 8.730610010646785 10.076289896805633 4 5 C3.009999999999991 4.670000000000016 2.019999999999982 4.339999999999975 1 4 C1.0618749999999864 4.701250000000016 1.1237499999999727 5.402499999999975 1.1875 6.125 C0.9574389921495481 9.652602120373501 -0.29200568177020614 11.939843513171638 -2 15 C-2.660000000000025 14.670000000000016 -3.319999999999993 14.339999999999975 -4 14 C-3.566874999999982 13.040937499999984 -3.566874999999982 13.040937499999984 -3.125 12.0625 C-1.6752274995406538 8.115897082082938 -0.8422193768928992 4.112539297806791 0 0 Z " fill="#444444" transform="translate(380,269)"/>
<path d="M0 0 C3.7148936842377225 0.6146946383990439 6.84694062053461 1.6401695151031959 10.25 3.25 C11.557109374999982 3.845546875000025 11.557109374999982 3.845546875000025 12.890625 4.453125 C15 6 15 6 15.796875 8.671875 C15.863906250000014 9.440156249999973 15.930937500000027 10.208437500000002 16 11 C13.029999999999973 10.670000000000016 10.060000000000002 10.339999999999975 7 10 C7 10.660000000000025 7 11.319999999999993 7 12 C6.339999999999975 12 5.680000000000007 12 5 12 C4.806640625 11.361914062499977 4.61328125 10.723828125000011 4.4140625 10.06640625 C4.153671874999986 9.240117187500005 3.8932812499999727 8.413828125000009 3.625 7.5625 C3.3697656250000136 6.738789062500018 3.1145312500000273 5.9150781249999795 2.8515625 5.06640625 C2.191177727453237 2.8220198406521035 2.191177727453237 2.8220198406521035 0 2 C0 1.339999999999975 0 0.6800000000000068 0 0 Z " fill="#E6E6E6" transform="translate(447,316)"/>
<path d="M0 0 C0.3299999999999841 0.3300000000000125 0.660000000000025 0.6599999999999966 1 1 C0.94921875 2.8125 0.94921875 2.8125 0.6875 5 C0.5695507812499727 6.082812499999989 0.5695507812499727 6.082812499999989 0.44921875 7.1875 C0.30097656250001137 7.785624999999982 0.15273437500002274 8.38375000000002 0 9 C-2.9566451925712727 10.478322596285636 -5.7422973696408235 10.060327826488106 -9 10 C-9.25 6.6875 -9.25 6.6875 -9 3 C-6.315551363979807 -0.08214473024540325 -3.980359015425904 -0.43030908274874946 0 0 Z " fill="#EEEEEE" transform="translate(438,255)"/>
<path d="M0 0 C-1.144687499999975 1.330312499999991 -1.144687499999975 1.330312499999991 -2.3125 2.6875 C-6.12614819605335 7.3006098575489204 -8.295673161999048 10.942789193191857 -9 17 C-7.019999999999982 16.339999999999975 -5.0400000000000205 15.680000000000007 -3 15 C-3.75 16.9375 -3.75 16.9375 -5 19 C-7.125 19.75 -7.125 19.75 -9 20 C-9 20.660000000000025 -9 21.319999999999993 -9 22 C-9.990000000000009 22 -10.980000000000018 22 -12 22 C-11.863933946646625 13.996842134579026 -11.615007420230256 6.235533846724763 -6 0 C-3.3805329763531518 -1.0217423954568972 -2.5478180834937234 -1.2739090417468901 0 0 Z " fill="#2C2C2C" transform="translate(428,289)"/>
<path d="M0 0 C0.9900000000000091 0 1.9800000000000182 0 3 0 C4.459511193697779 2.582674128765632 5.917648813331709 5.16610740523231 7.375 7.75 C7.787500000000023 8.479609374999995 8.199999999999989 9.209218749999991 8.625 9.9609375 C9.024609375000011 10.669921875 9.424218750000023 11.37890625 9.8359375 12.109375 C10.2025146484375 12.758740234375011 10.569091796875 13.408105468750023 10.94677734375 14.0771484375 C12 16 12 16 13.00244140625 18.1962890625 C13.857822854407004 20.214328058390947 13.857822854407004 20.214328058390947 16.125 20.75 C16.743749999999977 20.832499999999982 17.36250000000001 20.91500000000002 18 21 C17.339999999999975 22.980000000000018 16.680000000000007 24.95999999999998 16 27 C12.592098651405763 23.92766880608133 10.650504209248595 20.819920444817058 8.5625 16.75 C6.520414471373613 12.837469752265406 4.45718907582193 9.020186211144733 2.0625 5.3125 C0 2 0 2 0 0 Z " fill="#282828" transform="translate(406,349)"/>
<path d="M0 0 C0.660000000000025 0.3299999999999841 1.3199999999999932 0.660000000000025 2 1 C2 1.660000000000025 2 2.319999999999993 2 3 C1.2149609374999955 3.363515624999991 0.4299218749999909 3.727031249999982 -0.37890625 4.1015625 C-9.977065675879032 8.694546765144537 -16.145904967048978 13.130159040983301 -22 22 C-22.660000000000025 21.339999999999975 -23.319999999999993 20.680000000000007 -24 20 C-23.049566264442433 18.661024171289966 -22.089408530243304 17.328945725885546 -21.125 16 C-20.324492187500027 14.886250000000018 -20.324492187500027 14.886250000000018 -19.5078125 13.75 C-19.010234374999982 13.172500000000014 -18.51265625000002 12.595000000000027 -18 12 C-17.339999999999975 12 -16.680000000000007 12 -16 12 C-15.670000000000016 11.009999999999991 -15.339999999999975 10.019999999999982 -15 9 C-12.3828125 6.9921875 -12.3828125 6.9921875 -9.125 4.875 C-8.055078125000023 4.171171875000027 -6.985156249999989 3.4673437499999977 -5.8828125 2.7421875 C-3 1 -3 1 0 0 Z " fill="#292929" transform="translate(447,349)"/>
<path d="M0 0 C3.407944250821515 5.111916376232273 3.1575590151917368 10.19121470219369 3.125 16.1875 C3.1288671875000205 16.911308593749993 3.132734374999984 17.635117187499986 3.13671875 18.380859375 C3.126736111111086 23.74652777777777 3.126736111111086 23.74652777777777 2 26 C1.339999999999975 26 0.6800000000000068 26 0 26 C0 19.730000000000018 0 13.45999999999998 0 7 C-0.660000000000025 7 -1.3199999999999932 7 -2 7 C-1.424155676433429 4.6143592309385895 -0.777724052982478 2.3331721589473773 0 0 Z " fill="#4E4E4E" transform="translate(429,296)"/>
<path d="M0 0 C0.3300000000000125 0 0.6599999999999966 0 1 0 C2.5203468051297193 11.540814384393684 2.653137929627974 19.893967701830945 -4 30 C-4.659999999999997 30.329999999999984 -5.319999999999993 30.660000000000025 -6 31 C-5.806640625 30.382539062499973 -5.61328125 29.765078125000002 -5.4140625 29.12890625 C-3.67003848829566 23.456511320842765 -2.217821055098284 17.808069647391847 -1 12 C-1.6599999999999966 12.660000000000025 -2.319999999999993 13.319999999999993 -3 14 C-2.2854741231647324 9.236494154431625 -1.2046515616767692 4.6579860384835 0 0 Z " fill="#ABABAB" transform="translate(177,439)"/>
<path d="M0 0 C0.9900000000000091 0 1.9800000000000182 0 3 0 C3.2888341435980237 4.065340571142201 2.5787560897049957 6.330583549744119 0.5 9.8125 C0.03593749999998863 10.602695312499975 -0.42812500000002274 11.392890625000007 -0.90625 12.20703125 C-1.4476562500000227 13.094550781250007 -1.4476562500000227 13.094550781250007 -2 14 C-2.660000000000025 13.670000000000016 -3.319999999999993 13.339999999999975 -4 13 C-4.4140625 10.93359375 -4.4140625 10.93359375 -4.625 8.4375 C-4.699765624999998 7.6112109375000045 -4.7745312499999955 6.784921875000009 -4.8515625 5.93359375 C-4.900546874999975 5.295507812499977 -4.949531250000007 4.657421875000011 -5 4 C-4.360625000000027 3.711250000000007 -3.7212499999999977 3.4225000000000136 -3.0625 3.125 C-0.8479392085460518 2.1717654905909853 -0.8479392085460518 2.1717654905909853 0 0 Z " fill="#EFEFEF" transform="translate(435,266)"/>
<path d="M0 0 C0.21914062500002274 0.5658984374999818 0.43828124999998863 1.1317968750000205 0.6640625 1.71484375 C1.638169688783421 3.9679615972266333 2.5999178301083816 5.980979065979454 4 8 C7.034519706016056 9.146038369237203 7.034519706016056 9.146038369237203 10 9 C10.660000000000025 9 11.319999999999993 9 12 9 C12 8.339999999999975 12 7.680000000000007 12 7 C12.990000000000009 7.329999999999984 13.980000000000018 7.660000000000025 15 8 C14.670000000000016 8.660000000000025 14.339999999999975 9.319999999999993 14 10 C13.339999999999975 10 12.680000000000007 10 12 10 C12 10.660000000000025 12 11.319999999999993 12 12 C6.844091360476682 12.524329692154936 6.844091360476682 12.524329692154936 4 12 C1.25 9.1875 1.25 9.1875 -1 6 C-3.162206172420156 4.187349497478635 -3.162206172420156 4.187349497478635 -5 3 C-3.7124790999097286 0.424958199819514 -2.85933002197271 0 0 0 Z " fill="#6B6B6B" transform="translate(411,338)"/>
<path d="M0 0 C0.3299999999999841 0 0.660000000000025 0 1 0 C1.1650000000000205 1.03125 1.329999999999984 2.0625 1.5 3.125 C2.9467118364950693 8.214142346819585 6.76115444247921 10.229910623092337 11 13 C12.337001382993208 13.95320924115839 13.670647736610874 14.9111519230824 15 15.875 C15.990000000000009 16.576250000000016 16.980000000000018 17.277499999999975 18 18 C16.41015625 18.796875 16.41015625 18.796875 14 19 C11.630544409762024 17.497274107564408 9.587461806532417 16.02027226364652 7.4375 14.25 C6.860644531249989 13.793671874999973 6.283789062499977 13.337343750000002 5.689453125 12.8671875 C-0.19357756088510314 8.171619755325821 -0.19357756088510314 8.171619755325821 -2 6 C-1.7181952953338282 3.6751111865041253 -1.0455358235197991 2.0910716470395414 0 0 Z " fill="#2D2D2D" transform="translate(376,283)"/>
<path d="M0 0 C0.660000000000025 0.9900000000000091 1.3199999999999932 1.9800000000000182 2 3 C1.1015625 6.13671875 1.1015625 6.13671875 -0.375 9.6875 C-0.8571093749999932 10.866992187499989 -1.3392187499999864 12.046484374999977 -1.8359375 13.26171875 C-2.2200781249999864 14.165351562500007 -2.6042187499999727 15.068984375000014 -3 16 C-5.475000000000023 15.009999999999991 -5.475000000000023 15.009999999999991 -8 14 C-7.339999999999975 11.360000000000014 -6.680000000000007 8.720000000000027 -6 6 C-4.680000000000007 5.670000000000016 -3.3600000000000136 5.339999999999975 -2 5 C-0.703395664028335 2.5096561368898165 -0.703395664028335 2.5096561368898165 0 0 Z " fill="#3C3C3C" transform="translate(435,274)"/>
<path d="M0 0 C5 2 10 4 15 6 C15 7.649999999999977 15 9.300000000000011 15 11 C13.019999999999982 11 11.04000000000002 11 9 11 C8.670000000000016 10.009999999999991 8.339999999999975 9.019999999999982 8 8 C7.009999999999991 7.339999999999975 6.019999999999982 6.680000000000007 5 6 C5 5.339999999999975 5 4.680000000000007 5 4 C2.0299999999999727 3.5049999999999955 2.0299999999999727 3.5049999999999955 -1 3 C-0.6700000000000159 2.009999999999991 -0.339999999999975 1.0199999999999818 0 0 Z " fill="#434343" transform="translate(393,300)"/>
<path d="M0 0 C2.6866613904955443 5.181418395955632 4.276252485143573 9.060571569412616 4 15 C3.009999999999991 15 2.019999999999982 15 1 15 C0.32694982257362426 13.39850114032032 -0.33822226712072734 11.793689705842382 -1 10.1875 C-1.371249999999975 9.294179687499991 -1.7425000000000068 8.400859374999982 -2.125 7.48046875 C-3 5 -3 5 -3 2 C-2.339999999999975 2 -1.6800000000000068 2 -1 2 C-0.6700000000000159 1.339999999999975 -0.339999999999975 0.6800000000000068 0 0 Z " fill="#5F5F5F" transform="translate(406,312)"/>
<path d="M0 0 C1.9800000000000182 0.6600000000000001 3.9599999999999795 1.3200000000000003 6 2 C6 1.3399999999999999 6 0.6799999999999997 6 0 C7.980000000000018 0 9.95999999999998 0 12 0 C12 0.6600000000000001 12 1.3200000000000003 12 2 C13.319999999999993 2 14.639999999999986 2 16 2 C16 2.6599999999999966 16 3.3200000000000003 16 4 C10.623747658879608 4.848881948597949 6.3462960235604555 5.002430504417582 1 4 C0.6700000000000159 2.6799999999999997 0.339999999999975 1.3599999999999994 0 0 Z " fill="#838383" transform="translate(370,30)"/>
<path d="M0 0 C1.9044706111149026 2.856705916672354 2.261277118300427 3.856710621232594 2.75 7.0625 C4.231532680975363 14.316084006055291 8.560573470322424 20.2088674821818 13 26 C11.2265625 25.828125 11.2265625 25.828125 9 25 C7.1484375 22.671875 7.1484375 22.671875 5.375 19.75 C4.784609375000002 18.79609375000001 4.1942187500000045 17.842187500000023 3.5859375 16.859375 C1.1773680505532411 12.516831066514698 -0.2743841541322354 9.191869163429004 -0.125 4.1875 C-0.10695312500001819 3.3973046874999966 -0.08890624999997954 2.607109374999993 -0.0703125 1.79296875 C-0.03550781249998636 0.9054492187499932 -0.03550781249998636 0.9054492187499932 0 0 Z " fill="#D8D8D8" transform="translate(445,239)"/>
<path d="M0 0 C0.9900000000000091 0.3299999999999841 1.9800000000000182 0.660000000000025 3 1 C-2.1958238150923535 6.7370554624977785 -6.342356524815727 11.151603299093438 -14 13 C-14.990000000000009 12.670000000000016 -15.980000000000018 12.339999999999975 -17 12 C-16.191757812499986 11.55269531250002 -15.383515624999973 11.105390624999984 -14.55078125 10.64453125 C-6.585521135799297 6.185363240911613 -6.585521135799297 6.185363240911613 0 0 Z " fill="#242424" transform="translate(465,338)"/>
<path d="M0 0 C0.3299999999999841 0 0.660000000000025 0 1 0 C1.0605859374999795 0.9036328125000068 1.121171875000016 1.8072656250000136 1.18359375 2.73828125 C1.2673828124999886 3.9177734374999886 1.3511718749999773 5.097265624999977 1.4375 6.3125 C1.518710937499975 7.4842578125000045 1.5999218750000068 8.656015625000009 1.68359375 9.86328125 C1.886737104616202 13.025909579253039 1.886737104616202 13.025909579253039 3 16 C2.670000000000016 16.660000000000025 2.339999999999975 17.319999999999993 2 18 C0.6800000000000068 18 -0.6399999999999864 18 -2 18 C-2.329999999999984 18.99000000000001 -2.660000000000025 19.980000000000018 -3 21 C-2.670000000000016 16.379999999999995 -2.339999999999975 11.759999999999991 -2 7 C-1.670000000000016 7 -1.339999999999975 7 -1 7 C-0.6700000000000159 4.689999999999998 -0.339999999999975 2.3799999999999955 0 0 Z " fill="#5B5B5B" transform="translate(397,320)"/>
<path d="M0 0 C0.660000000000025 0 1.3199999999999932 0 2 0 C3.176731980501245 2.353463961002433 3.166238663158765 3.880603301161898 3.1875 6.5 C3.201679687500018 7.2940624999999955 3.2158593749999795 8.088124999999991 3.23046875 8.90625 C3 11 3 11 1 13 C0.009999999999990905 13 -0.9800000000000182 13 -2 13 C-1.8591520447741914 11.207934527126781 -1.712162987075601 9.41635082992002 -1.5625 7.625 C-1.481289062500025 6.627265625000007 -1.4000781249999932 5.629531250000014 -1.31640625 4.6015625 C-1 2 -1 2 0 0 Z " fill="#DDDDDD" transform="translate(426,275)"/>
<path d="M0 0 C-0.3299999999999841 0.660000000000025 -0.660000000000025 1.3199999999999932 -1 2 C-2.113749999999982 2.3093749999999886 -3.2275000000000205 2.6187499999999773 -4.375 2.9375 C-8.395700839185452 4.068440019605646 -8.395700839185452 4.068440019605646 -11 7 C-11.144375000000025 7.6806250000000205 -11.288749999999993 8.361249999999984 -11.4375 9.0625 C-12 11 -12 11 -14.03515625 12.12109375 C-14.68355468750002 12.4111328125 -15.331953124999984 12.701171875 -16 13 C-15.574054117332025 11.559034141612585 -15.133733671842947 10.122312883310428 -14.6875 8.6875 C-14.443867187500018 7.886992187500027 -14.20023437499998 7.086484374999998 -13.94921875 6.26171875 C-12.94649526719553 3.872513414428795 -11.980727629244825 2.64205399315631 -10 1 C-6.713893957688299 -0.2464540160492561 -3.4808214747127977 -0.07910957897075832 0 0 Z " fill="#464646" transform="translate(423,327)"/>
<path d="M0 0 C1.4850000000000136 0.9900000000000091 1.4850000000000136 0.9900000000000091 3 2 C3 2.660000000000025 3 3.319999999999993 3 4 C3.9281250000000227 4.247500000000002 4.856249999999989 4.4950000000000045 5.8125 4.75 C9.164583254107242 6.06454245259107 10.187780304351463 6.979633840585791 12 10 C9.038248768910591 9.387223883222873 7.619412172938894 8.746274781959244 5 7 C5 8.649999999999977 5 10.300000000000011 5 12 C4.339999999999975 12 3.680000000000007 12 3 12 C2.009999999999991 8.04000000000002 1.0199999999999818 4.079999999999984 0 0 Z " fill="#3A3A3A" transform="translate(388,276)"/>
<path d="M0 0 C-1 3 -1 3 -3.875 4.6875 C-7 6 -7 6 -10 6 C-10.329999999999984 4.350000000000023 -10.660000000000025 2.6999999999999886 -11 1 C-3.571428571428555 -1.4285714285714448 -3.571428571428555 -1.4285714285714448 0 0 Z " fill="#E7E7E7" transform="translate(422,275)"/>
<path d="M0 0 C6.0546875 -0.1953125 6.0546875 -0.1953125 8 0 C8.660000000000025 0.6600000000000001 9.319999999999993 1.3200000000000003 10 2 C12.42715206077321 2.679404673241706 12.42715206077321 2.679404673241706 15.125 3.125 C16.490117187500005 3.3763671875000014 16.490117187500005 3.3763671875000014 17.8828125 3.6328125 C18.581484375000002 3.7539843750000017 19.280156250000005 3.8751562500000034 20 4 C20 4.659999999999997 20 5.32 20 6 C18.270147579961133 5.884878472922104 16.54111249333448 5.757443229343991 14.8125 5.625 C13.84957031250002 5.555390625000001 12.886640624999984 5.485781250000002 11.89453125 5.4140625 C8.984910623257178 4.997841465675116 6.671092262073785 4.201259042907047 4 3 C4 2.34 4 1.6799999999999997 4 1 C2.680000000000007 0.6700000000000017 1.3600000000000136 0.33999999999999986 0 0 Z " fill="#C7C7C7" transform="translate(378,29)"/>
<path d="M0 0 C5.939999999999998 0 11.879999999999995 0 18 0 C18 0.6599999999999966 18 1.3200000000000003 18 2 C15.751352754317395 2.2224597542520215 13.500973772728344 2.427465566883022 11.25 2.625 C9.370546875000002 2.799023437499997 9.370546875000002 2.799023437499997 7.453125 2.9765625 C4.164130967536494 2.998885988908121 2.689792241061582 2.779610018076113 0 1 C0 0.6700000000000017 0 0.3400000000000034 0 0 Z " fill="#929292" transform="translate(336,37)"/>
<path d="M0 0 C0.660000000000025 0 1.3199999999999932 0 2 0 C2.329999999999984 1.9800000000000182 2.660000000000025 3.9599999999999795 3 6 C4.649999999999977 5.670000000000016 6.300000000000011 5.339999999999975 8 5 C8 8 8 8 7 11 C6.009999999999991 11 5.019999999999982 11 4 11 C4 10.339999999999975 4 9.680000000000007 4 9 C3.009999999999991 8.670000000000016 2.019999999999982 8.339999999999975 1 8 C0.6700000000000159 5.360000000000014 0.339999999999975 2.7200000000000273 0 0 Z " fill="#626262" transform="translate(399,336)"/>
<path d="M0 0 C0.660000000000025 0 1.3199999999999932 0 2 0 C2.738041002277896 14.781321184510261 2.738041002277896 14.781321184510261 -2 21 C-2.625 19.1875 -2.625 19.1875 -3 17 C-2.009999999999991 15.514999999999986 -2.009999999999991 15.514999999999986 -1 14 C-0.7054741552179848 11.613229238983308 -0.507178297034443 9.213739062792797 -0.375 6.8125 C-0.3002343750000023 5.540195312499975 -0.22546875000000455 4.267890625000007 -0.1484375 2.95703125 C-0.09945312500002501 1.981210937500009 -0.05046874999999318 1.0053906250000182 0 0 Z " fill="#343434" transform="translate(439,255)"/>
<path d="M0 0 C1.5 1.25 1.5 1.25 3 3 C3 4.319999999999993 3 5.639999999999986 3 7 C4.980000000000018 6.670000000000016 6.9599999999999795 6.339999999999975 9 6 C7 9 7 9 4.6171875 9.51171875 C3.7122656249999864 9.569726562500023 2.8073437499999727 9.627734374999989 1.875 9.6875 C0.5098828124999955 9.786113281249982 0.5098828124999955 9.786113281249982 -0.8828125 9.88671875 C-1.930820312499975 9.942792968749984 -1.930820312499975 9.942792968749984 -3 10 C-1.6800000000000068 9.670000000000016 -0.36000000000001364 9.339999999999975 1 9 C0.8440234375000273 8.434101562500018 0.6880468749999977 7.8682031249999795 0.52734375 7.28515625 C0.3326953124999932 6.551679687499984 0.13804687499998636 5.818203125000025 -0.0625 5.0625 C-0.3583398437500023 3.966152343750025 -0.3583398437500023 3.966152343750025 -0.66015625 2.84765625 C-0.772304687500025 2.2379296875000136 -0.8844531249999932 1.6282031250000273 -1 1 C-0.6700000000000159 0.6700000000000159 -0.339999999999975 0.339999999999975 0 0 Z " fill="#202020" transform="translate(409,274)"/>
<path d="M0 0 C0.660000000000025 0 1.3199999999999932 0 2 0 C2.125 7.625 2.125 7.625 1 11 C1.660000000000025 11.329999999999984 2.319999999999993 11.660000000000025 3 12 C1.6800000000000068 12 0.36000000000001364 12 -1 12 C-1 9.029999999999973 -1 6.060000000000002 -1 3 C-2.319999999999993 3.329999999999984 -3.6399999999999864 3.660000000000025 -5 4 C-5.329999999999984 3.339999999999975 -5.660000000000025 2.680000000000007 -6 2 C-4.019999999999982 2 -2.0400000000000205 2 0 2 C0 1.339999999999975 0 0.6800000000000068 0 0 Z " fill="#717171" transform="translate(423,277)"/>
<path d="M0 0 C0.3299999999999841 0.6599999999999966 0.660000000000025 1.3200000000000003 1 2 C0.43152343750000455 2.037382812499999 -0.1369531249999909 2.0747656249999977 -0.72265625 2.11328125 C-4.705195744805337 2.452362242045197 -8.15980586994948 2.879084444411504 -11.8125 4.5625 C-15 6 -15 6 -19 6 C-19 5.340000000000003 -19 4.68 -19 4 C-17.391250000000014 3.566875000000003 -17.391250000000014 3.566875000000003 -15.75 3.125 C-12.206634064023433 2.2203558573374877 -12.206634064023433 2.2203558573374877 -10.0625 0.875 C-6.7511498337362355 -0.5298152220512975 -3.570341776623877 -0.11901139255412829 0 0 Z " fill="#B5B5B5" transform="translate(424,39)"/>
<path d="M0 0 C0.9666136270811876 3.121804010425251 0.9898890943305219 5.5208379539471935 0.5625 8.75 C0.4606640624999727 9.549218750000023 0.3588281250000023 10.348437499999989 0.25390625 11.171875 C0.12822265624998863 12.076796875000014 0.12822265624998863 12.076796875000014 0 13 C0.9900000000000091 13 1.9800000000000182 13 3 13 C3 13.660000000000025 3 14.319999999999993 3 15 C0.6456126661587973 16.429449452689312 -0.4803243269801101 17.086612612169972 -3.25 16.625 C-4.1162499999999795 16.31562500000001 -4.1162499999999795 16.31562500000001 -5 16 C-4.009999999999991 15.670000000000016 -3.019999999999982 15.339999999999975 -2 15 C-1.9394140625000205 14.084765624999989 -1.878828124999984 13.169531249999977 -1.81640625 12.2265625 C-1.6907226562499886 10.443789062500002 -1.6907226562499886 10.443789062500002 -1.5625 8.625 C-1.481289062500025 7.441640624999991 -1.4000781249999932 6.258281249999982 -1.31640625 5.0390625 C-1 2 -1 2 0 0 Z " fill="#A7A7A7" transform="translate(394,361)"/>
<path d="M0 0 C0.6883593750000045 0.6322851562500205 0.6883593750000045 0.6322851562500205 1.390625 1.27734375 C2.004218750000007 1.8251953125 2.6178125000000136 2.373046875 3.25 2.9375 C3.853281250000009 3.4827734374999864 4.456562500000018 4.028046874999973 5.078125 4.58984375 C7.084673051841719 6.062127991290367 8.570024487710839 6.575291890551227 11 7 C11 7.990000000000009 11 8.980000000000018 11 10 C8.04101995052821 9.862373020954806 5.79204004367017 9.679476213174382 3.48828125 7.703125 C1.177979485322851 5.028735564671706 0 3.6012252210604743 0 0 Z " fill="#454545" transform="translate(436,309)"/>
<path d="M0 0 C0 0.660000000000025 0 1.3199999999999932 0 2 C-1.79296875 3.5078125 -1.79296875 3.5078125 -4.1875 5.125 C-4.964804687499964 5.663828125000009 -5.742109375000041 6.202656250000018 -6.54296875 6.7578125 C-9.271081807396854 8.13704930803209 -10.986149994143489 8.246247069750268 -14 8 C-14 7.339999999999975 -14 6.680000000000007 -14 6 C-12.044146751983135 4.995157964321606 -10.085237631722975 3.996261949299196 -8.125 3 C-6.489179687500041 2.1646875000000136 -6.489179687500041 2.1646875000000136 -4.8203125 1.3125 C-2 0 -2 0 0 0 Z " fill="#A3A3A3" transform="translate(541,464)"/>
<path d="M0 0 C5.010257013701107 -0.16983922080342495 8.39467730522523 -0.11595907597759236 13 2 C14.659198956264902 2.3687108791699814 16.324764296558612 2.7128167365529023 18 3 C18 3.3299999999999983 18 3.6599999999999966 18 4 C11.282996530699847 4.319857308061913 6.242730684997582 3.479382399715348 0 1 C0 0.6700000000000017 0 0.3400000000000034 0 0 Z " fill="#888888" transform="translate(318,33)"/>
<path d="M0 0 C3.77639717526705 0.5103239426036339 5.447225813805687 1.207669291934053 8 4 C5.916954618095133 4.054183261379023 3.8335023173368086 4.092875514930938 1.75 4.125 C0.009765625 4.159804687500014 0.009765625 4.159804687500014 -1.765625 4.1953125 C-5 4 -5 4 -9 2 C-6.029999999999973 2.329999999999984 -3.0600000000000023 2.660000000000025 0 3 C0 2.009999999999991 0 1.0199999999999818 0 0 Z " fill="#2C2C2C" transform="translate(464,325)"/>
<path d="M0 0 C0.9900000000000091 2.3100000000000023 1.9800000000000182 4.6200000000000045 3 7 C2.009999999999991 7.329999999999984 1.0199999999999818 7.660000000000025 0 8 C-1.6499999999999773 6.350000000000023 -3.3000000000000114 4.699999999999989 -5 3 C-3.7124790999097286 0.424958199819514 -2.85933002197271 0 0 0 Z " fill="#727272" transform="translate(411,338)"/>
<path d="M0 0 C0.3299999999999841 0 0.660000000000025 0 1 0 C1 1.6499999999999773 1 3.3000000000000114 1 5 C2.980000000000018 4.339999999999975 4.9599999999999795 3.680000000000007 7 3 C6.25 4.9375 6.25 4.9375 5 7 C2.875 7.75 2.875 7.75 1 8 C1 8.660000000000025 1 9.319999999999993 1 10 C0.009999999999990905 9.670000000000016 -0.9800000000000182 9.339999999999975 -2 9 C-1.339999999999975 9 -0.6800000000000068 9 0 9 C0 6.029999999999973 0 3.0600000000000023 0 0 Z " fill="#616161" transform="translate(418,301)"/>
<path d="M0 0 C2.2355175935868488 3.3532763903802447 2.172835279527874 3.90743657125779 1.625 7.6875 C1.5141406250000102 8.495742187500014 1.403281249999992 9.303984375000027 1.2890625 10.13671875 C1.1936718750000068 10.751601562500014 1.0982812500000136 11.366484375000027 1 12 C-0.515625 10.72265625 -0.515625 10.72265625 -2 9 C-1.7681153640668583 5.695643937952923 -1.4892935949974913 2.9785871899949825 0 0 Z " fill="#D8D8D8" transform="translate(178,432)"/>
<path d="M0 0 C2.3100000000000023 0.660000000000025 4.6200000000000045 1.3199999999999932 7 2 C6.339999999999975 3.980000000000018 5.680000000000007 5.9599999999999795 5 8 C2.201275634829699 5.472119928233269 0.5422698092393148 3.7958886646752035 0 0 Z " fill="#1B1B1B" transform="translate(417,368)"/>
<path d="M0 0 C0.3299999999999841 0.660000000000025 0.660000000000025 1.3199999999999932 1 2 C1.660000000000025 2 2.319999999999993 2 3 2 C3 8.269999999999982 3 14.54000000000002 3 21 C2.670000000000016 21 2.339999999999975 21 2 21 C2 15.060000000000002 2 9.120000000000005 2 3 C1.009999999999991 3.329999999999984 0.01999999999998181 3.660000000000025 -1 4 C-1 1 -1 1 0 0 Z " fill="#C3C3C3" transform="translate(426,301)"/>
<path d="M0 0 C0.9900000000000091 0 1.9800000000000182 0 3 0 C2.25 6.75 2.25 6.75 0 9 C-1 8 -1 8 -1.125 4.5 C-1 1 -1 1 0 0 Z " fill="#0D0D0D" transform="translate(431,281)"/>
<path d="M0 0 C1.9800000000000182 0 3.9599999999999795 0 6 0 C5.288437499999986 0.8353124999999864 5.288437499999986 0.8353124999999864 4.5625 1.6875 C2.876040042119598 4.183460737662983 2.4104689312058554 6.0446236953179096 2 9 C1.670000000000016 8.339999999999975 1.339999999999975 7.680000000000007 1 7 C-1.024632550896456 6.347867082956668 -1.024632550896456 6.347867082956668 -3 6 C-1.6800000000000068 5.670000000000016 -0.36000000000001364 5.339999999999975 1 5 C0.6700000000000159 3.3500000000000227 0.339999999999975 1.6999999999999886 0 0 Z " fill="#5D5D5D" transform="translate(428,266)"/>
<path d="M0 0 C0.660000000000025 0.3299999999999841 1.3199999999999932 0.660000000000025 2 1 C2 1.660000000000025 2 2.319999999999993 2 3 C-0.6399999999999864 3.990000000000009 -3.2799999999999727 4.980000000000018 -6 6 C-6.660000000000025 5.339999999999975 -7.319999999999993 4.680000000000007 -8 4 C-6.71349293842411 3.302892685239101 -5.420593351338141 2.6175712431401053 -4.125 1.9375 C-3.4057031250000023 1.5546484375000205 -2.6864062500000045 1.171796874999984 -1.9453125 0.77734375 C-1.3033593750000136 0.5208203125000068 -0.6614062500000273 0.26429687500001364 0 0 Z " fill="#474747" transform="translate(447,349)"/>
<path d="M0 0 C2.625 0.375 2.625 0.375 5 1 C4.339999999999975 2.980000000000018 3.680000000000007 4.9599999999999795 3 7 C2.670000000000016 7 2.339999999999975 7 2 7 C1.670000000000016 5.350000000000023 1.339999999999975 3.6999999999999886 1 2 C-0.6499999999999773 3.319999999999993 -2.3000000000000114 4.639999999999986 -4 6 C-2.8482664479834625 3.5319995313931827 -1.9521643451747082 1.9521643451747082 0 0 Z " fill="#ACACAC" transform="translate(427,289)"/>
<path d="M0 0 C0.6599999999999966 0.660000000000025 1.3199999999999932 1.3199999999999932 2 2 C1.383026809169337 3.4825326672872734 0.7561610361583746 4.960951736578409 0.125 6.4375 C-0.3970703125000057 7.673066406249973 -0.3970703125000057 7.673066406249973 -0.9296875 8.93359375 C-2 11 -2 11 -4 12 C-3.5230979636311304 10.374333938918653 -3.0434033439259736 8.749486893836092 -2.5625 7.125 C-2.295664062500009 6.220078124999986 -2.0288281249999898 5.315156249999973 -1.75390625 4.3828125 C-1 2 -1 2 0 0 Z " fill="#BBBBBB" transform="translate(175,458)"/>
<path d="M0 0 C1.3919591510264127 4.175877453079238 -0.17676781100556127 6.1347477593318445 -2 10 C-4 7 -4 7 -3.625 3.8125 C-3.4187499999999886 2.8843749999999773 -3.2124999999999773 1.9562500000000114 -3 1 C-2.009999999999991 0.6700000000000159 -1.0199999999999818 0.339999999999975 0 0 Z " fill="#BCBCBC" transform="translate(378,275)"/>
<path d="M0 0 C3.3000000000000114 0 6.600000000000023 0 10 0 C10.329999999999984 0.6600000000000001 10.660000000000025 1.3200000000000003 11 2 C10.339999999999975 2 9.680000000000007 2 9 2 C9 2.66 9 3.3200000000000003 9 4 C6.029999999999973 3.009999999999998 3.0600000000000023 2.0199999999999996 0 1 C0 0.6700000000000017 0 0.33999999999999986 0 0 Z " fill="#ADADAD" transform="translate(367,28)"/>
<path d="M0 0 C0.6599999999999966 0 1.3199999999999932 0 2 0 C1.2933719863695217 3.674465670878476 -0.18840116378143534 6.739122094806589 -2 10 C-2.990000000000009 10.495000000000005 -2.990000000000009 10.495000000000005 -4 11 C-3.216813108241155 7.084065541205803 -1.6082014227236812 3.6359336513752964 0 0 Z " fill="#B3B3B3" transform="translate(199,456)"/>
<path d="M0 0 C3.9599999999999795 0 7.920000000000016 0 12 0 C12.329999999999984 0.660000000000025 12.660000000000025 1.3199999999999932 13 2 C8.155078028204173 3.5140381161862138 4.740898895683017 2.366021715705301 0 1 C0 0.6700000000000159 0 0.339999999999975 0 0 Z " fill="#666666" transform="translate(419,326)"/>
<path d="M0 0 C0.3299999999999841 0.6600000000000001 0.660000000000025 1.3200000000000003 1 2 C2.319999999999993 2 3.6399999999999864 2 5 2 C5 2.6599999999999966 5 3.3200000000000003 5 4 C2.3600000000000136 4.329999999999998 -0.2799999999999727 4.659999999999997 -3 5 C-2.625 3.0625 -2.625 3.0625 -2 1 C-1.339999999999975 0.6700000000000017 -0.6800000000000068 0.33999999999999986 0 0 Z " fill="#A4A4A4" transform="translate(381,30)"/>
<path d="M0 0 C1.6661190515158069 -0.04272100132089918 3.333828848928249 -0.04063832075786422 5 0 C6 1 6 1 6.09765625 2.84765625 C6.065104166666686 4.8984375 6.032552083333314 6.94921875 6 9 C5.670000000000016 9 5.339999999999975 9 5 9 C5 7.350000000000023 5 5.699999999999989 5 4 C4.009999999999991 3.670000000000016 3.019999999999982 3.339999999999975 2 3 C2 2.339999999999975 2 1.6800000000000068 2 1 C1.339999999999975 0.6700000000000159 0.6800000000000068 0.339999999999975 0 0 Z " fill="#333333" transform="translate(428,328)"/>
<path d="M0 0 C0.3299999999999841 0 0.660000000000025 0 1 0 C1.660000000000025 2.9700000000000273 2.319999999999993 5.939999999999998 3 9 C-1 7 -1 7 -1.875 5.0625 C-2 3 -2 3 0 0 Z " fill="#212121" transform="translate(376,283)"/>
<path d="M0 0 C4.999119238229923 0.47610659411714096 7.978326831792856 2.0316221853709067 12 5 C9.443451850931865 5.955826560237199 8.396582306169591 6.1780278235724495 5.859375 5.0390625 C5.163281250000011 4.572421874999975 4.467187500000023 4.105781250000007 3.75 3.625 C3.0435937500000136 3.1635156250000023 2.3371875000000273 2.7020312500000045 1.609375 2.2265625 C1.078281249999975 1.8217968750000182 0.5471875000000068 1.4170312499999795 0 1 C0 0.6700000000000159 0 0.339999999999975 0 0 Z " fill="#131313" transform="translate(401,284)"/>
<path d="M0 0 C2 3 2 3 1.75 4.875 C0.9009298489120852 7.280698761415692 -0.018813392041352017 9.645152140899256 -1 12 C-1.660000000000025 11.670000000000016 -2.319999999999993 11.339999999999975 -3 11 C-2.6906250000000114 10.298749999999984 -2.3812500000000227 9.597500000000025 -2.0625 8.875 C-0.9669732238829738 5.910633429330403 -0.43577008162765196 3.123018918331354 0 0 Z " fill="#525252" transform="translate(379,272)"/>
<path d="M0 0 C-0.3299999999999841 0.9900000000000091 -0.660000000000025 1.9800000000000182 -1 3 C-1.990000000000009 3.329999999999984 -2.980000000000018 3.660000000000025 -4 4 C-4 3.339999999999975 -4 2.680000000000007 -4 2 C-5.319999999999993 1.670000000000016 -6.639999999999986 1.339999999999975 -8 1 C-4.932511255165082 -0.8624038807926127 -3.4025448890364487 -1.215194603227303 0 0 Z " fill="#C1C1C1" transform="translate(422,275)"/>
<path d="M0 0 C0.660000000000025 0.3299999999999841 1.3199999999999932 0.660000000000025 2 1 C2.625 3.5625 2.625 3.5625 3 6 C1.3500000000000227 6.329999999999984 -0.30000000000001137 6.660000000000025 -2 7 C-1.125 2.25 -1.125 2.25 0 0 Z " fill="#1D1D1D" transform="translate(426,265)"/>
<path d="M0 0 C0.9900000000000091 0 1.9800000000000182 0 3 0 C4.75 2.375 4.75 2.375 6 5 C5.670000000000016 5.660000000000025 5.339999999999975 6.319999999999993 5 7 C4.339999999999975 7 3.680000000000007 7 3 7 C0 2.6153846153846416 0 2.6153846153846416 0 0 Z " fill="#333333" transform="translate(406,349)"/>
<path d="M0 0 C0.660000000000025 0.660000000000025 1.3199999999999932 1.3199999999999932 2 2 C1.339999999999975 3.319999999999993 0.6800000000000068 4.639999999999986 0 6 C-0.9900000000000091 6 -1.9800000000000182 6 -3 6 C-3.329999999999984 4.680000000000007 -3.660000000000025 3.3600000000000136 -4 2 C-2.680000000000007 1.339999999999975 -1.3600000000000136 0.6800000000000068 0 0 Z " fill="#242424" transform="translate(406,341)"/>
<path d="M0 0 C1.5 1.1875 1.5 1.1875 3 3 C3.1875 5.6875 3.1875 5.6875 3 8 C2.339999999999975 8 1.6800000000000068 8 1 8 C0.339999999999975 5.689999999999998 -0.3199999999999932 3.3799999999999955 -1 1 C-0.6700000000000159 0.6700000000000159 -0.339999999999975 0.339999999999975 0 0 Z " fill="#707070" transform="translate(409,274)"/>
<path d="M0 0 C1.892133692598577 2.3857337863199177 3.0239178274126175 4.071753482237909 4 7 C3.009999999999991 7 2.019999999999982 7 1 7 C-1 4 -1 4 -0.625 1.8125 C-0.41874999999998863 1.2143750000000182 -0.21249999999997726 0.6162499999999795 0 0 Z " fill="#313131" transform="translate(415,361)"/>
<path d="M0 0 C3.3000000000000114 0.9900000000000091 6.600000000000023 1.9800000000000182 10 3 C10 3.329999999999984 10 3.660000000000025 10 4 C7.360000000000014 4 4.720000000000027 4 2 4 C1.339999999999975 2.680000000000007 0.6800000000000068 1.3600000000000136 0 0 Z " fill="#3B3B3B" transform="translate(412,345)"/>
<path d="M0 0 C0.8971874999999727 0.30937499999998863 0.8971874999999727 0.30937499999998863 1.8125 0.625 C0.6987500000000182 1.2746875000000273 0.6987500000000182 1.2746875000000273 -0.4375 1.9375 C-2.8058392636237954 3.3907990935873045 -4.996740648383138 4.921076059853533 -7.1875 6.625 C-4.6484375 -0.796875 -4.6484375 -0.796875 0 0 Z " fill="#C1C1C1" transform="translate(418.1875,329.375)"/>
<path d="M0 0 C2.9375 0.375 2.9375 0.375 6 1 C6.329999999999984 1.660000000000025 6.660000000000025 2.319999999999993 7 3 C5.350000000000023 3.329999999999984 3.6999999999999886 3.660000000000025 2 4 C1.339999999999975 2.680000000000007 0.6800000000000068 1.3600000000000136 0 0 Z " fill="#949494" transform="translate(401,286)"/>
<path d="M0 0 C3 3.625 3 3.625 3 7 C1.6800000000000068 6.670000000000016 0.36000000000001364 6.339999999999975 -1 6 C-0.6700000000000159 5.670000000000016 -0.339999999999975 5.339999999999975 0 5 C-0.660000000000025 4.670000000000016 -1.3199999999999932 4.339999999999975 -2 4 C-2 3.339999999999975 -2 2.680000000000007 -2 2 C-1.339999999999975 2 -0.6800000000000068 2 0 2 C0 1.339999999999975 0 0.6800000000000068 0 0 Z " fill="#959595" transform="translate(411,284)"/>
</svg>
