<svg width="616" height="497" xmlns="http://www.w3.org/2000/svg"><path d="M 0.00,0.00 C 0.00,496.00 615.00,496.00 615.00,0.00" stroke="black" fill="none" stroke-width="0.5"/><path d="M 530.00,470.00 C 531.00,469.00 532.00,470.00 531.00,471.00" stroke="black" fill="none" stroke-width="0.5"/><path d="M 536.00,466.00 C 537.00,465.00 538.00,466.00 537.00,467.00" stroke="black" fill="none" stroke-width="0.5"/><path d="M 177.00,440.00 L 177.16,440.19 L 177.30,440.43 L 177.41,440.69 L 177.50,440.97 L 177.57,441.27 L 177.62,441.57 L 177.64,441.87 L 177.65,442.17 L 177.63,442.46 L 177.60,442.73 L 177.55,442.97 L 177.49,443.20 L 177.42,443.39 L 177.33,443.56 L 177.23,443.69 L 177.13,443.78 L 177.02,443.83 L 176.90,443.84 L 176.78,443.81 L 176.67,443.74 L 176.55,443.62 L 176.44,443.46 L 176.34,443.25 L 176.25,442.99 L 176.16,442.69 L 176.10,442.34 L 176.04,441.94 L 176.01,441.49 L 176.00,441.00" stroke="black" fill="none" stroke-width="0.5"/><path d="M 391.00,376.00 L 391.17,375.84 L 391.34,375.70 L 391.52,375.59 L 391.69,375.50 L 391.85,375.43 L 392.02,375.38 L 392.18,375.36 L 392.33,375.35 L 392.48,375.37 L 392.61,375.40 L 392.74,375.45 L 392.85,375.51 L 392.95,375.58 L 393.03,375.67 L 393.09,375.77 L 393.14,375.87 L 393.17,375.98 L 393.17,376.10 L 393.16,376.22 L 393.12,376.33 L 393.07,376.45 L 392.99,376.56 L 392.89,376.66 L 392.78,376.75 L 392.64,376.84 L 392.50,376.90 L 392.34,376.96 L 392.17,376.99 L 392.00,377.00" stroke="black" fill="none" stroke-width="0.5"/><path d="M 394.00,374.00 L 394.17,373.85 L 394.34,373.74 L 394.51,373.68 L 394.67,373.64 L 394.82,373.64 L 394.96,373.66 L 395.08,373.71 L 395.20,373.77 L 395.30,373.86 L 395.38,373.96 L 395.45,374.07 L 395.51,374.18 L 395.54,374.31 L 395.56,374.44 L 395.56,374.56 L 395.54,374.69 L 395.51,374.82 L 395.45,374.93 L 395.38,375.04 L 395.30,375.14 L 395.20,375.23 L 395.08,375.29 L 394.96,375.34 L 394.82,375.36 L 394.67,375.36 L 394.51,375.32 L 394.34,375.26 L 394.17,375.15 L 394.00,375.00" stroke="black" fill="none" stroke-width="0.5"/><path d="M 429.00,294.00 L 429.57,296.32 L 430.03,298.68 L 430.40,301.03 L 430.68,303.32 L 430.88,305.52 L 431.00,307.58 L 431.05,309.48 L 431.04,311.19 L 430.97,312.70 L 430.85,313.99 L 430.69,315.05 L 430.50,315.86 L 430.28,316.43 L 430.05,316.74 L 429.79,316.79 L 429.53,316.60 L 429.27,316.17 L 429.01,315.50 L 428.75,314.62 L 428.49,313.54 L 428.24,312.29 L 428.00,310.90 L 427.76,309.42 L 427.51,307.89 L 427.26,306.37 L 427.00,304.93 L 426.71,303.65 L 426.38,302.64 L 426.00,302.00" stroke="black" fill="none" stroke-width="0.5"/><path d="M 417.00,275.00 C 418.00,274.00 419.00,275.00 418.00,276.00" stroke="black" fill="none" stroke-width="0.5"/><path d="M 409.00,273.00 L 409.27,273.31 L 409.49,273.62 L 409.68,273.93 L 409.86,274.24 L 410.02,274.55 L 410.17,274.86 L 410.32,275.18 L 410.45,275.49 L 410.57,275.81 L 410.67,276.12 L 410.75,276.43 L 410.79,276.73 L 410.79,277.02 L 410.76,277.30 L 410.67,277.54 L 410.54,277.75 L 410.35,277.91 L 410.13,278.01 L 409.86,278.04 L 409.57,278.00 L 409.25,277.88 L 408.92,277.67 L 408.60,277.39 L 408.30,277.04 L 408.02,276.63 L 407.76,276.20 L 407.52,275.76 L 407.28,275.35 L 407.00,275.00" stroke="black" fill="none" stroke-width="0.5"/><path d="M 437.00,252.00 L 428.27,274.62 L 421.63,283.44 L 415.62,287.80 L 410.87,291.95 L 408.03,297.29 L 407.24,303.81 L 408.19,310.95 L 410.33,318.09 L 413.11,324.71 L 416.13,330.47 L 419.19,335.15 L 422.30,338.60 L 425.53,340.80 L 428.92,341.81 L 432.40,341.82 L 435.69,341.18 L 438.35,340.33 L 439.83,339.75 L 439.60,339.80 L 437.25,340.62 L 432.65,341.98 L 426.07,343.25 L 418.11,343.53 L 409.72,341.76 L 401.88,336.98 L 395.26,328.51 L 389.64,316.16 L 383.37,300.90 L 373.00,287.00" stroke="black" fill="none" stroke-width="0.5"/><path d="M 430.00,330.00 L 427.97,329.40 L 425.52,329.22 L 422.99,329.41 L 420.58,329.92 L 418.41,330.69 L 416.54,331.65 L 414.97,332.73 L 413.72,333.90 L 412.80,335.10 L 412.21,336.29 L 411.95,337.47 L 412.02,338.61 L 412.42,339.70 L 413.12,340.70 L 414.10,341.62 L 415.34,342.41 L 416.78,343.04 L 418.38,343.50 L 420.08,343.75 L 421.83,343.78 L 423.58,343.59 L 425.28,343.19 L 426.87,342.58 L 428.32,341.77 L 429.58,340.78 L 430.61,339.56 L 431.38,338.08 L 431.84,336.25 L 432.00,334.00" stroke="black" fill="none" stroke-width="0.5"/><path d="M 437.00,255.00 L 435.27,255.50 L 433.81,256.29 L 432.63,257.26 L 431.73,258.31 L 431.08,259.36 L 430.68,260.37 L 430.47,261.31 L 430.44,262.16 L 430.53,262.93 L 430.71,263.63 L 430.93,264.28 L 431.15,264.90 L 431.33,265.51 L 431.47,266.15 L 431.54,266.82 L 431.53,267.54 L 431.47,268.31 L 431.37,269.13 L 431.25,269.98 L 431.17,270.84 L 431.15,271.68 L 431.24,272.44 L 431.50,273.05 L 431.96,273.43 L 432.65,273.48 L 433.59,273.05 L 434.79,271.98 L 436.27,270.06 L 438.00,267.00" stroke="black" fill="none" stroke-width="0.5"/><path d="M 337.00,38.00 L 337.40,37.78 L 338.03,37.62 L 338.82,37.50 L 339.68,37.43 L 340.54,37.41 L 341.38,37.43 L 342.14,37.50 L 342.80,37.59 L 343.35,37.73 L 343.77,37.88 L 344.08,38.06 L 344.26,38.24 L 344.32,38.44 L 344.28,38.63 L 344.15,38.81 L 343.94,38.97 L 343.66,39.12 L 343.34,39.23 L 342.97,39.32 L 342.57,39.38 L 342.15,39.40 L 341.72,39.40 L 341.27,39.36 L 340.81,39.30 L 340.33,39.23 L 339.83,39.15 L 339.28,39.08 L 338.68,39.02 L 338.00,39.00" stroke="black" fill="none" stroke-width="0.5"/><path d="M 348.00,37.00 C 349.00,36.00 350.00,37.00 349.00,38.00" stroke="black" fill="none" stroke-width="0.5"/><path d="M 335.00,37.00 L 335.17,36.84 L 335.34,36.70 L 335.52,36.59 L 335.69,36.50 L 335.85,36.43 L 336.02,36.38 L 336.18,36.36 L 336.33,36.35 L 336.48,36.37 L 336.61,36.40 L 336.74,36.45 L 336.85,36.51 L 336.95,36.58 L 337.03,36.67 L 337.09,36.77 L 337.14,36.87 L 337.17,36.98 L 337.17,37.10 L 337.16,37.22 L 337.12,37.33 L 337.07,37.45 L 336.99,37.56 L 336.89,37.66 L 336.78,37.75 L 336.64,37.84 L 336.50,37.90 L 336.34,37.96 L 336.17,37.99 L 336.00,38.00" stroke="black" fill="none" stroke-width="0.5"/><path d="M 322.00,34.00 L 322.39,33.74 L 322.90,33.57 L 323.52,33.49 L 324.23,33.50 L 325.01,33.58 L 325.87,33.71 L 326.78,33.88 L 327.72,34.09 L 328.66,34.31 L 329.57,34.53 L 330.43,34.77 L 331.19,35.00 L 331.82,35.22 L 332.29,35.44 L 332.59,35.63 L 332.69,35.82 L 332.58,35.97 L 332.26,36.10 L 331.75,36.18 L 331.05,36.23 L 330.20,36.22 L 329.24,36.16 L 328.21,36.05 L 327.16,35.89 L 326.14,35.69 L 325.19,35.46 L 324.36,35.25 L 323.64,35.07 L 323.00,35.00" stroke="black" fill="none" stroke-width="0.5"/><path d="M 381.00,33.00 C 382.00,32.00 383.00,33.00 382.00,34.00" stroke="black" fill="none" stroke-width="0.5"/><path d="M 378.00,33.00 L 378.17,32.84 L 378.34,32.70 L 378.52,32.59 L 378.69,32.50 L 378.85,32.43 L 379.02,32.38 L 379.18,32.36 L 379.33,32.35 L 379.48,32.37 L 379.61,32.40 L 379.74,32.45 L 379.85,32.51 L 379.95,32.58 L 380.03,32.67 L 380.09,32.77 L 380.14,32.87 L 380.17,32.98 L 380.17,33.10 L 380.16,33.22 L 380.12,33.33 L 380.07,33.45 L 379.99,33.56 L 379.89,33.66 L 379.78,33.75 L 379.64,33.84 L 379.50,33.90 L 379.34,33.96 L 379.17,33.99 L 379.00,34.00" stroke="black" fill="none" stroke-width="0.5"/><path d="M 382.00,32.00 C 383.00,31.00 384.00,32.00 383.00,33.00" stroke="black" fill="none" stroke-width="0.5"/><path d="M 377.00,30.00 C 378.00,29.00 379.00,30.00 378.00,31.00" stroke="black" fill="none" stroke-width="0.5"/><path d="M 369.00,30.00 L 369.35,29.71 L 369.74,29.54 L 370.19,29.49 L 370.68,29.52 L 371.21,29.62 L 371.75,29.75 L 372.31,29.89 L 372.86,30.04 L 373.38,30.16 L 373.89,30.26 L 374.36,30.34 L 374.79,30.41 L 375.17,30.46 L 375.51,30.52 L 375.79,30.58 L 376.01,30.67 L 376.15,30.79 L 376.19,30.94 L 376.13,31.12 L 375.95,31.34 L 375.63,31.56 L 375.16,31.79 L 374.53,31.99 L 373.76,32.14 L 372.85,32.21 L 371.85,32.16 L 370.81,31.96 L 369.82,31.58 L 369.00,31.00" stroke="black" fill="none" stroke-width="0.5"/><path d="M 365.00,29.00 C 366.00,28.00 367.00,29.00 366.00,30.00" stroke="black" fill="none" stroke-width="0.5"/><path d="M 360.00,26.00 L 360.17,25.85 L 360.34,25.74 L 360.51,25.68 L 360.67,25.64 L 360.82,25.64 L 360.96,25.66 L 361.08,25.71 L 361.20,25.77 L 361.30,25.86 L 361.38,25.96 L 361.45,26.07 L 361.51,26.18 L 361.54,26.31 L 361.56,26.44 L 361.56,26.56 L 361.54,26.69 L 361.51,26.82 L 361.45,26.93 L 361.38,27.04 L 361.30,27.14 L 361.20,27.23 L 361.08,27.29 L 360.96,27.34 L 360.82,27.36 L 360.67,27.36 L 360.51,27.32 L 360.34,27.26 L 360.17,27.15 L 360.00,27.00" stroke="black" fill="none" stroke-width="0.5"/></svg>